<?xml version="1.0" standalone="no"?>
<!DOCTYPE svg PUBLIC "-//W3C//DTD SVG 20010904//EN"
 "http://www.w3.org/TR/2001/REC-SVG-20010904/DTD/svg10.dtd">
<svg version="1.0" xmlns="http://www.w3.org/2000/svg"
 width="720.000000pt" height="720.000000pt" viewBox="0 0 720.000000 720.000000"
 preserveAspectRatio="xMidYMid meet">
<metadata>
Created by potrace 1.14, written by Peter Selinger 2001-2017
</metadata>
<g transform="translate(0.000000,720.000000) scale(0.100000,-0.100000)"
fill="#000000" stroke="none">
<path d="M3525 6747 c-17 -12 -136 -103 -265 -202 -129 -100 -343 -265 -475
-366 -223 -172 -747 -578 -770 -597 -6 -5 -23 -17 -38 -26 l-27 -18 0 72 c0
57 4 76 18 86 16 13 16 14 0 8 -15 -5 -18 0 -18 23 0 16 6 35 13 42 9 11 9 13
0 7 -17 -10 -17 55 0 73 10 11 10 13 0 7 -9 -5 -13 3 -14 26 -3 71 -4 79 -16
86 -15 10 -700 8 -710 -2 -5 -4 -7 -227 -6 -494 1 -401 -1 -491 -12 -508 -8
-12 -121 -104 -252 -205 -485 -373 -890 -689 -909 -710 l-19 -22 25 13 c14 7
134 73 268 147 133 74 248 131 254 127 6 -4 8 -3 5 2 -3 6 29 28 71 49 42 22
79 43 80 48 2 4 8 7 14 7 6 0 36 15 67 34 64 39 87 47 83 28 -1 -8 2 -11 7 -7
6 3 7 13 4 22 -5 13 -2 15 11 10 11 -5 15 -3 10 5 -5 8 -2 9 10 5 10 -4 15 -3
11 3 -3 5 8 16 25 25 16 8 30 12 30 8 0 -5 4 -3 8 3 9 16 142 87 142 77 0 -5
4 -3 8 2 11 15 47 42 39 29 -3 -6 0 -11 7 -11 8 0 12 6 9 12 -2 7 3 15 13 19
12 4 15 2 11 -9 -4 -8 -3 -16 1 -19 4 -3 9 5 9 17 2 23 31 50 44 41 5 -3 9 0
9 7 0 8 3 9 14 0 13 -11 29 -1 38 24 1 6 9 9 16 9 6 -1 12 2 12 7 0 14 58 39
77 33 15 -5 16 -4 3 5 -13 10 -8 15 13 12 4 0 7 3 7 8 0 9 60 37 73 33 4 -1 7
2 7 8 0 5 7 10 15 10 8 0 15 5 15 10 0 6 5 10 11 10 6 0 37 15 69 34 44 26 61
31 70 23 8 -9 10 -8 6 3 -4 10 7 22 34 37 22 12 38 18 35 13 -3 -5 -1 -12 5
-15 6 -4 10 -3 9 2 -5 30 35 57 68 47 12 -4 14 -3 6 3 -16 11 41 47 62 39 9
-3 12 0 9 8 -3 7 3 16 13 19 10 3 42 20 72 37 29 17 50 26 46 18 -4 -7 -1 -7
7 2 7 8 26 24 42 34 26 16 28 17 23 2 -4 -10 -3 -15 3 -11 6 3 10 13 10 22 0
10 6 13 16 9 8 -3 13 -2 10 3 -7 11 22 23 36 14 6 -3 8 -2 5 4 -4 5 6 16 21
24 15 8 81 44 147 80 66 36 150 82 186 102 37 20 69 33 73 30 3 -3 8 1 12 10
3 9 12 13 21 10 11 -4 14 -2 9 5 -4 7 -3 12 3 12 5 0 41 18 80 41 39 22 76 37
82 33 7 -4 9 -3 6 3 -5 9 91 66 110 65 4 0 12 6 16 14 4 8 12 14 17 14 5 0 32
14 60 30 56 33 64 36 55 18 -4 -7 2 -3 12 8 24 28 81 57 95 48 7 -4 8 -3 4 4
-3 6 3 16 14 22 11 6 20 8 20 5 0 -4 7 1 16 9 8 9 20 14 25 11 5 -4 9 -2 9 2
0 9 52 43 65 43 3 0 3 -5 -1 -12 -4 -7 -3 -8 4 -4 7 4 12 13 12 19 1 16 88 59
102 51 7 -4 8 -3 4 4 -13 21 43 13 64 -8 11 -11 20 -17 20 -14 0 3 22 -7 50
-22 27 -15 47 -31 44 -36 -3 -5 1 -8 9 -6 22 5 167 -75 167 -92 0 -13 1 -13
10 0 5 8 10 11 10 5 0 -5 21 -18 46 -29 24 -10 50 -23 57 -30 7 -6 34 -22 60
-35 25 -13 44 -27 41 -32 -3 -5 1 -6 9 -3 8 3 21 -1 28 -8 8 -7 21 -14 29 -16
8 -2 21 -11 28 -20 7 -9 15 -15 18 -13 8 5 64 -21 64 -30 0 -5 3 -8 8 -7 10 3
116 -53 124 -66 4 -6 8 -8 8 -4 0 4 33 -12 73 -34 39 -23 98 -55 130 -72 31
-16 57 -34 57 -38 0 -11 -14 -10 -26 2 -7 7 -11 6 -11 -3 0 -8 11 -13 28 -13
15 0 26 3 23 8 -3 4 2 5 11 2 9 -4 14 -13 10 -22 -4 -12 -3 -12 9 -3 8 7 16 8
18 3 1 -4 23 -18 48 -30 57 -28 81 -43 98 -62 11 -12 12 -12 6 -1 -5 10 4 8
27 -6 19 -12 62 -36 96 -53 34 -18 60 -37 56 -43 -3 -6 -1 -7 5 -4 15 10 43
-3 35 -16 -3 -6 -1 -7 5 -3 16 10 54 -12 46 -26 -4 -6 -3 -8 3 -5 9 6 121 -46
133 -61 3 -4 11 -8 19 -10 24 -5 101 -53 101 -63 0 -5 3 -8 8 -8 32 5 89 -32
77 -51 -3 -5 -1 -11 4 -15 6 -3 8 3 6 14 -3 18 -1 19 21 9 13 -6 24 -15 24
-20 0 -5 4 -7 8 -4 5 3 19 -4 30 -15 12 -11 22 -17 22 -14 0 3 9 1 21 -5 13
-7 18 -17 15 -27 -5 -13 -4 -14 9 -3 12 10 15 10 15 0 0 -8 3 -10 6 -7 10 9
46 -12 39 -23 -3 -6 1 -7 11 -3 12 4 15 2 12 -8 -3 -8 -10 -14 -16 -14 -5 0
-13 -3 -17 -7 -4 -3 0 -5 9 -4 9 1 21 7 28 14 8 8 19 7 42 -6 17 -9 33 -20 36
-23 3 -3 20 -11 38 -18 30 -13 37 -22 32 -46 -1 -5 2 -7 6 -3 4 4 14 2 23 -4
9 -7 7 -2 -4 11 l-20 23 27 -13 c15 -6 25 -16 22 -20 -3 -5 2 -6 10 -3 9 3 16
2 16 -4 0 -5 11 -13 25 -16 16 -4 23 -11 19 -18 -4 -7 -3 -8 4 -4 6 4 34 -5
61 -19 37 -20 48 -31 44 -43 -4 -15 -3 -15 6 -2 7 9 14 11 19 5 4 -5 14 -11
22 -13 8 -2 17 -8 18 -13 2 -5 10 -9 18 -9 16 0 18 -11 4 -28 -5 -7 -2 -6 7 2
15 13 25 10 95 -27 43 -23 78 -49 78 -57 0 -13 1 -13 10 0 6 10 10 11 10 3 0
-7 7 -13 16 -13 11 0 14 -5 9 -17 -5 -14 -4 -15 6 -6 13 13 54 -1 45 -16 -3
-4 5 -7 17 -7 13 1 21 -4 19 -12 -1 -8 2 -11 7 -7 11 6 51 -13 63 -30 5 -7 8
-7 8 0 0 7 3 7 8 0 4 -5 33 -23 65 -40 31 -16 57 -33 57 -38 0 -4 4 -6 9 -2 5
3 15 0 23 -7 7 -7 19 -14 25 -15 6 -1 68 -34 138 -73 71 -39 130 -69 132 -66
2 2 -13 18 -34 34 -259 204 -1648 1277 -2184 1687 -101 77 -280 216 -399 309
-118 94 -354 278 -525 409 -170 132 -326 252 -345 268 l-35 27 -30 -21z
m-1868 -806 l262 -1 -1 -35 c-1 -20 -5 -32 -11 -28 -6 4 -7 1 -1 -8 12 -20 12
-349 -1 -365 -20 -27 -579 -453 -587 -448 -5 3 -7 0 -6 -7 2 -6 -2 -13 -9 -16
-8 -3 -11 67 -10 279 2 229 5 282 15 280 8 -1 11 2 7 8 -3 6 -10 8 -15 5 -5
-3 -9 70 -9 162 0 92 4 170 8 173 5 3 29 4 53 3 23 -1 161 -2 305 -2z m-317
-1205 c0 -3 -4 -8 -10 -11 -5 -3 -10 -1 -10 4 0 6 5 11 10 11 6 0 10 -2 10 -4z"/>
<path d="M1597 5853 c-10 -9 -9 -23 1 -23 5 0 9 7 9 15 0 17 -1 18 -10 8z"/>
<path d="M1675 5851 c-3 -5 -2 -12 3 -15 5 -3 9 1 9 9 0 17 -3 19 -12 6z"/>
<path d="M1336 5842 c-3 -5 1 -9 9 -9 8 0 12 4 9 9 -3 4 -7 8 -9 8 -2 0 -6 -4
-9 -8z"/>
<path d="M1636 5842 c-3 -5 1 -9 9 -9 8 0 12 4 9 9 -3 4 -7 8 -9 8 -2 0 -6 -4
-9 -8z"/>
<path d="M1774 5838 c-4 -7 -4 -10 1 -6 4 4 15 2 24 -5 14 -11 14 -10 2 6 -16
20 -18 21 -27 5z"/>
<path d="M1307 5799 c7 -7 15 -10 18 -7 3 3 -2 9 -12 12 -14 6 -15 5 -6 -5z"/>
<path d="M1313 5685 c0 -8 4 -12 9 -9 5 3 6 10 3 15 -9 13 -12 11 -12 -6z"/>
<path d="M1333 5645 c0 -8 4 -12 9 -9 5 3 6 10 3 15 -9 13 -12 11 -12 -6z"/>
<path d="M1330 5580 c0 -5 5 -10 11 -10 5 0 7 5 4 10 -3 6 -8 10 -11 10 -2 0
-4 -4 -4 -10z"/>
<path d="M1327 5499 c7 -7 15 -10 18 -7 3 3 -2 9 -12 12 -14 6 -15 5 -6 -5z"/>
<path d="M1326 5462 c-3 -5 1 -9 9 -9 8 0 12 4 9 9 -3 4 -7 8 -9 8 -2 0 -6 -4
-9 -8z"/>
<path d="M1314 5405 c0 -19 3 -32 5 -29 8 7 9 54 2 59 -4 2 -7 -12 -7 -30z"/>
<path d="M1333 5285 c0 -8 4 -12 9 -9 5 3 6 10 3 15 -9 13 -12 11 -12 -6z"/>
<path d="M1333 5165 c0 -8 4 -12 9 -9 5 3 6 10 3 15 -9 13 -12 11 -12 -6z"/>
<path d="M1307 5079 c7 -7 15 -10 18 -7 3 3 -2 9 -12 12 -14 6 -15 5 -6 -5z"/>
<path d="M3476 5902 c-2 -4 -1 -14 4 -22 7 -11 9 -9 7 8 -1 24 -3 26 -11 14z"/>
<path d="M3510 5896 c7 -7 13 -7 20 0 6 6 3 10 -10 10 -13 0 -16 -4 -10 -10z"/>
<path d="M3556 5902 c-2 -4 -1 -14 4 -22 7 -11 9 -9 7 8 -1 24 -3 26 -11 14z"/>
<path d="M3509 5863 c-13 -16 -12 -17 4 -4 16 13 21 21 13 21 -2 0 -10 -8 -17
-17z"/>
<path d="M3596 5867 c3 -10 9 -15 12 -12 3 3 0 11 -7 18 -10 9 -11 8 -5 -6z"/>
<path d="M3676 5867 c3 -10 9 -15 12 -12 3 3 0 11 -7 18 -10 9 -11 8 -5 -6z"/>
<path d="M3653 5845 c0 -8 4 -15 9 -15 4 0 8 4 8 9 0 6 -4 12 -8 15 -5 3 -9
-1 -9 -9z"/>
<path d="M3410 5841 c0 -6 4 -13 10 -16 6 -3 7 1 4 9 -7 18 -14 21 -14 7z"/>
<path d="M3555 5809 c-4 -6 -5 -12 -2 -15 2 -3 7 2 10 11 7 17 1 20 -8 4z"/>
<path d="M3453 5793 c0 -9 4 -10 12 -3 7 5 15 7 18 3 4 -3 7 -1 7 5 0 6 -8 10
-18 9 -10 0 -19 -7 -19 -14z"/>
<path d="M3500 5805 c0 -2 6 -8 13 -14 10 -8 14 -7 14 2 0 8 -6 14 -14 14 -7
0 -13 -1 -13 -2z"/>
<path d="M3710 5798 c0 -6 3 -8 7 -5 3 4 11 2 18 -3 8 -7 12 -6 12 3 0 7 -9
14 -19 14 -10 1 -18 -3 -18 -9z"/>
<path d="M3773 5793 c0 -9 4 -10 14 -2 7 6 13 12 13 14 0 1 -6 2 -13 2 -8 0
-14 -6 -14 -14z"/>
<path d="M1987 5779 c7 -7 15 -10 18 -7 3 3 -2 9 -12 12 -14 6 -15 5 -6 -5z"/>
<path d="M3827 5779 c7 -7 15 -10 18 -7 3 3 -2 9 -12 12 -14 6 -15 5 -6 -5z"/>
<path d="M3415 5770 c-4 -6 -10 -8 -15 -5 -4 3 -14 -3 -21 -13 -12 -15 -12
-16 2 -5 9 7 18 11 21 8 3 -3 11 1 18 10 7 8 10 15 7 15 -3 0 -9 -5 -12 -10z"/>
<path d="M3786 5758 c3 -4 9 -8 15 -8 5 0 9 4 9 8 0 5 -7 9 -15 9 -8 0 -12 -4
-9 -9z"/>
<path d="M3755 5740 c3 -5 8 -10 11 -10 2 0 4 5 4 10 0 6 -5 10 -11 10 -5 0
-7 -4 -4 -10z"/>
<path d="M3854 5729 c-3 -6 -2 -15 3 -20 5 -5 9 -1 9 11 0 23 -2 24 -12 9z"/>
<path d="M3273 5723 c4 -3 1 -13 -6 -22 -11 -14 -10 -14 6 -2 20 15 22 31 5
31 -6 0 -8 -3 -5 -7z"/>
<path d="M3330 5699 c0 -5 5 -7 10 -4 6 3 10 8 10 11 0 2 -4 4 -10 4 -5 0 -10
-5 -10 -11z"/>
<path d="M3990 5700 c0 -5 5 -10 11 -10 5 0 7 5 4 10 -3 6 -8 10 -11 10 -2 0
-4 -4 -4 -10z"/>
<path d="M3939 5698 c-5 -18 -6 -38 -1 -34 7 8 12 36 6 36 -2 0 -4 -1 -5 -2z"/>
<path d="M3087 5679 c7 -7 15 -10 18 -7 3 3 -2 9 -12 12 -14 6 -15 5 -6 -5z"/>
<path d="M3180 5686 c0 -2 8 -10 18 -17 15 -13 16 -12 3 4 -13 16 -21 21 -21
13z"/>
<path d="M3855 5680 c-3 -5 -1 -10 4 -10 6 0 11 5 11 10 0 6 -2 10 -4 10 -3 0
-8 -4 -11 -10z"/>
<path d="M3893 5671 c0 -11 5 -18 9 -15 4 3 5 11 1 19 -7 21 -12 19 -10 -4z"/>
<path d="M3039 5668 c-5 -18 -6 -38 -1 -34 7 8 12 36 6 36 -2 0 -4 -1 -5 -2z"/>
<path d="M4033 5649 c-1 -11 2 -19 8 -19 5 0 8 6 7 13 -2 6 4 11 12 9 8 -2 11
0 7 4 -15 15 -33 11 -34 -7z"/>
<path d="M3134 5649 c-3 -6 -2 -15 3 -20 5 -5 9 -1 9 11 0 23 -2 24 -12 9z"/>
<path d="M3080 5615 c-7 -9 -11 -17 -9 -20 3 -2 10 5 17 15 14 24 10 26 -8 5z"/>
<path d="M3975 5620 c-2 -3 5 -7 16 -7 10 -1 19 2 19 6 0 9 -29 10 -35 1z"/>
<path d="M2974 5609 c-3 -6 -2 -15 3 -20 5 -5 9 -1 9 11 0 23 -2 24 -12 9z"/>
<path d="M4033 5605 c0 -8 4 -12 9 -9 5 3 6 10 3 15 -9 13 -12 11 -12 -6z"/>
<path d="M4094 5606 c1 -8 5 -18 8 -22 4 -3 5 1 4 10 -1 8 -5 18 -8 22 -4 3
-5 -1 -4 -10z"/>
<path d="M3137 5595 c-4 -8 -3 -16 1 -19 4 -3 9 4 9 15 2 23 -3 25 -10 4z"/>
<path d="M4150 5576 c7 -7 13 -7 20 0 6 6 3 10 -10 10 -13 0 -16 -4 -10 -10z"/>
<path d="M4193 5553 c0 -11 7 -20 14 -20 10 0 10 4 1 16 -7 9 -13 18 -15 20
-1 2 -1 -5 0 -16z"/>
<path d="M2989 5543 c-13 -16 -12 -17 4 -4 16 13 21 21 13 21 -2 0 -10 -8 -17
-17z"/>
<path d="M4269 5538 c11 -15 11 -21 0 -35 -12 -17 -12 -17 6 0 19 17 19 17 0
35 -18 16 -18 16 -6 0z"/>
<path d="M2813 5515 c0 -8 4 -12 9 -9 4 3 8 9 8 15 0 5 -4 9 -8 9 -5 0 -9 -7
-9 -15z"/>
<path d="M2927 5519 c7 -7 15 -10 18 -7 3 3 -2 9 -12 12 -14 6 -15 5 -6 -5z"/>
<path d="M4307 5519 c7 -7 15 -10 18 -7 3 3 -2 9 -12 12 -14 6 -15 5 -6 -5z"/>
<path d="M4187 5499 c7 -7 15 -10 18 -7 3 3 -2 9 -12 12 -14 6 -15 5 -6 -5z"/>
<path d="M4227 5499 c7 -7 15 -10 18 -7 3 3 -2 9 -12 12 -14 6 -15 5 -6 -5z"/>
<path d="M4350 5501 c0 -6 4 -13 10 -16 6 -3 7 1 4 9 -7 18 -14 21 -14 7z"/>
<path d="M2831 5487 c2 -2 11 -8 20 -15 12 -9 16 -9 16 1 0 7 -9 14 -20 14
-11 1 -18 1 -16 0z"/>
<path d="M2893 5473 c0 -10 4 -10 16 -1 9 7 18 13 20 15 2 1 -5 1 -16 0 -11 0
-20 -7 -20 -14z"/>
<path d="M2754 5455 c0 -14 4 -25 8 -25 4 0 7 9 5 20 -5 29 -13 33 -13 5z"/>
<path d="M4350 5456 c7 -7 13 -7 20 0 6 6 3 10 -10 10 -13 0 -16 -4 -10 -10z"/>
<path d="M2675 5451 c-3 -5 -2 -12 3 -15 5 -3 9 1 9 9 0 17 -3 19 -12 6z"/>
<path d="M4415 5450 c-4 -6 -11 -7 -17 -4 -7 4 -8 2 -4 -5 6 -9 11 -9 22 0 14
11 18 19 10 19 -3 0 -8 -5 -11 -10z"/>
<path d="M2834 5434 c1 -8 4 -15 7 -16 2 -2 3 -1 2 1 -2 2 2 9 7 16 7 8 5 12
-4 12 -8 0 -13 -6 -12 -13z"/>
<path d="M4310 5441 c0 -6 4 -12 8 -15 5 -3 9 1 9 9 0 8 -4 15 -9 15 -4 0 -8
-4 -8 -9z"/>
<path d="M4494 5422 c3 -6 -2 -15 -11 -21 -10 -6 -13 -11 -7 -11 20 0 37 27
23 36 -7 4 -9 3 -5 -4z"/>
<path d="M2614 5400 c0 -13 4 -16 10 -10 7 7 7 13 0 20 -6 6 -10 3 -10 -10z"/>
<path d="M2689 5403 c-13 -16 -12 -17 4 -4 9 7 17 15 17 17 0 8 -8 3 -21 -13z"/>
<path d="M2570 5401 c0 -6 4 -12 8 -15 5 -3 9 1 9 9 0 8 -4 15 -9 15 -4 0 -8
-4 -8 -9z"/>
<path d="M2753 5395 c0 -8 4 -12 9 -9 4 3 8 9 8 15 0 5 -4 9 -8 9 -5 0 -9 -7
-9 -15z"/>
<path d="M2593 5346 l-18 -21 24 20 c13 11 25 19 28 17 3 -2 7 -2 9 1 2 2 -3
4 -11 4 -8 0 -23 -10 -32 -21z"/>
<path d="M2680 5366 c0 -2 8 -10 18 -17 15 -13 16 -12 3 4 -13 16 -21 21 -21
13z"/>
<path d="M4455 5360 c3 -5 8 -10 11 -10 2 0 4 5 4 10 0 6 -5 10 -11 10 -5 0
-7 -4 -4 -10z"/>
<path d="M4593 5354 c0 -9 4 -11 12 -4 7 5 14 9 16 7 2 -1 3 0 1 2 -7 11 -29
7 -29 -5z"/>
<path d="M2513 5327 c-1 -11 -1 -18 0 -16 2 2 8 11 15 20 9 12 9 16 -1 16 -7
0 -14 -9 -14 -20z"/>
<path d="M4544 5342 c4 -3 14 -7 22 -8 9 -1 13 0 10 4 -4 3 -14 7 -22 8 -9 1
-13 0 -10 -4z"/>
<path d="M2415 5320 c-2 -3 5 -7 16 -7 10 -1 19 2 19 6 0 9 -29 10 -35 1z"/>
<path d="M2676 5318 c3 -5 10 -6 15 -3 13 9 11 12 -6 12 -8 0 -12 -4 -9 -9z"/>
<path d="M4553 5305 c0 -8 4 -12 9 -9 5 3 6 10 3 15 -9 13 -12 11 -12 -6z"/>
<path d="M2379 5298 c-5 -18 -6 -38 -1 -34 7 8 12 36 6 36 -2 0 -4 -1 -5 -2z"/>
<path d="M2530 5296 c0 -2 8 -10 18 -17 15 -13 16 -12 3 4 -13 16 -21 21 -21
13z"/>
<path d="M2570 5279 c0 -5 5 -7 10 -4 6 3 10 8 10 11 0 2 -4 4 -10 4 -5 0 -10
-5 -10 -11z"/>
<path d="M4673 5267 c0 -8 6 -14 14 -14 9 0 10 4 2 14 -6 7 -12 13 -14 13 -1
0 -2 -6 -2 -13z"/>
<path d="M2314 5248 l-19 -23 23 19 c21 18 27 26 19 26 -2 0 -12 -10 -23 -22z"/>
<path d="M2490 5256 c0 -2 8 -10 18 -17 15 -13 16 -12 3 4 -13 16 -21 21 -21
13z"/>
<path d="M4731 5247 c-8 -10 -7 -14 2 -14 8 0 14 6 14 14 0 7 -1 13 -2 13 -2
0 -8 -6 -14 -13z"/>
<path d="M4774 5240 c0 -13 4 -16 10 -10 7 7 7 13 0 20 -6 6 -10 3 -10 -10z"/>
<path d="M2275 5240 c-3 -5 -1 -10 4 -10 6 0 11 5 11 10 0 6 -2 10 -4 10 -3 0
-8 -4 -11 -10z"/>
<path d="M2353 5233 c0 -11 7 -20 14 -20 10 0 10 4 1 16 -7 9 -13 18 -15 20
-1 2 -1 -5 0 -16z"/>
<path d="M2416 5242 c-3 -5 1 -9 9 -9 8 0 12 4 9 9 -3 4 -7 8 -9 8 -2 0 -6 -4
-9 -8z"/>
<path d="M4694 5218 c-4 -7 -4 -10 1 -6 4 4 15 2 24 -5 14 -11 14 -10 2 6 -16
20 -18 21 -27 5z"/>
<path d="M4820 5226 c0 -2 8 -10 18 -17 15 -13 16 -12 3 4 -13 16 -21 21 -21
13z"/>
<path d="M2297 5213 c-10 -9 -9 -23 1 -23 5 0 9 7 9 15 0 17 -1 18 -10 8z"/>
<path d="M4776 5198 c3 -4 11 -5 19 -1 21 7 19 12 -4 10 -11 0 -18 -5 -15 -9z"/>
<path d="M2321 5176 c-9 -11 -9 -16 1 -22 7 -4 10 -4 6 1 -4 4 -3 14 3 22 6 7
9 13 6 13 -2 0 -10 -6 -16 -14z"/>
<path d="M4870 5178 c0 -4 4 -8 9 -8 6 0 12 4 15 8 3 5 -1 9 -9 9 -8 0 -15 -4
-15 -9z"/>
<path d="M2191 5167 c2 -2 11 -8 20 -15 12 -9 16 -9 16 1 0 7 -9 14 -20 14
-11 1 -18 1 -16 0z"/>
<path d="M2259 5153 c-13 -17 -13 -17 6 -3 11 8 22 16 24 17 2 2 0 3 -6 3 -6
0 -17 -8 -24 -17z"/>
<path d="M2356 5162 c-3 -5 1 -9 9 -9 8 0 12 4 9 9 -3 4 -7 8 -9 8 -2 0 -6 -4
-9 -8z"/>
<path d="M4953 5163 c4 -3 1 -13 -6 -22 -11 -14 -10 -14 5 -2 16 12 16 31 1
31 -4 0 -3 -3 0 -7z"/>
<path d="M2160 5135 c-7 -9 -11 -17 -9 -20 3 -2 10 5 17 15 14 24 10 26 -8 5z"/>
<path d="M4855 5140 c3 -5 8 -10 11 -10 2 0 4 5 4 10 0 6 -5 10 -11 10 -5 0
-7 -4 -4 -10z"/>
<path d="M2091 5127 c-8 -10 -7 -14 2 -14 8 0 14 6 14 14 0 7 -1 13 -2 13 -2
0 -8 -6 -14 -13z"/>
<path d="M5014 5120 c0 -13 4 -16 10 -10 7 7 7 13 0 20 -6 6 -10 3 -10 -10z"/>
<path d="M2194 5123 c3 -4 1 -11 -4 -18 -7 -8 -5 -12 5 -12 7 0 13 5 12 11 -1
6 5 10 13 8 8 -2 11 0 7 4 -4 4 -15 9 -23 10 -9 1 -13 0 -10 -3z"/>
<path d="M2033 5093 c0 -9 4 -10 14 -2 7 6 13 12 13 14 0 1 -6 2 -13 2 -8 0
-14 -6 -14 -14z"/>
<path d="M4955 5100 c3 -5 8 -10 11 -10 2 0 4 5 4 10 0 6 -5 10 -11 10 -5 0
-7 -4 -4 -10z"/>
<path d="M2142 5084 c10 -10 20 -16 22 -13 3 3 -5 11 -17 18 -21 13 -21 12 -5
-5z"/>
<path d="M5086 5078 c3 -5 10 -6 15 -3 13 9 11 12 -6 12 -8 0 -12 -4 -9 -9z"/>
<path d="M1974 5046 c1 -8 5 -18 8 -22 4 -3 5 1 4 10 -1 8 -5 18 -8 22 -4 3
-5 -1 -4 -10z"/>
<path d="M2053 5045 c0 -8 4 -15 9 -15 4 0 8 4 8 9 0 6 -4 12 -8 15 -5 3 -9
-1 -9 -9z"/>
<path d="M5094 5049 c-3 -6 -2 -15 3 -20 5 -5 9 -1 9 11 0 23 -2 24 -12 9z"/>
<path d="M2086 5038 c3 -5 10 -6 15 -3 13 9 11 12 -6 12 -8 0 -12 -4 -9 -9z"/>
<path d="M5060 5040 c-9 -6 -10 -10 -3 -10 6 0 15 5 18 10 8 12 4 12 -15 0z"/>
<path d="M3250 5010 c-139 -29 -216 -66 -312 -150 -138 -122 -224 -319 -228
-525 -1 -38 -1 -72 1 -75 1 -3 3 -16 4 -30 1 -14 5 -33 9 -42 4 -9 5 -22 1
-28 -3 -5 -1 -10 4 -10 6 0 10 -3 9 -7 -5 -20 64 -174 90 -202 7 -7 11 -20 8
-28 -4 -8 -1 -11 5 -8 6 4 31 -13 56 -37 63 -60 72 -68 126 -112 26 -21 44
-43 40 -50 -3 -6 -3 -8 2 -4 8 7 67 -30 90 -56 6 -7 27 -22 47 -34 26 -16 35
-28 32 -40 -5 -13 -4 -14 4 -3 10 14 36 6 27 -9 -3 -4 5 -6 17 -3 19 4 20 3 8
-6 -12 -8 -12 -11 -2 -11 8 0 16 9 19 19 3 13 12 18 25 16 12 -3 17 -1 14 3
-4 4 -13 7 -19 7 -7 0 -13 10 -15 23 -2 15 2 22 12 22 9 0 16 4 16 10 0 5 -7
7 -15 4 -8 -4 -15 -1 -15 5 0 6 6 11 13 11 9 0 9 2 0 8 -6 4 -12 27 -11 50 0
38 2 41 14 25 13 -17 14 -17 7 2 -3 11 -11 23 -17 27 -8 5 -7 14 2 29 8 11 9
18 3 14 -7 -4 -11 9 -11 39 0 44 -2 46 -77 108 -42 35 -106 91 -141 125 -59
56 -64 64 -51 80 13 16 12 17 -3 4 -16 -12 -22 -9 -19 12 0 4 -4 7 -10 7 -5 0
-7 5 -4 10 3 6 2 10 -3 10 -8 0 -29 52 -36 90 -2 8 -6 22 -9 30 -3 8 -7 34 -9
58 -3 32 0 42 12 42 12 0 12 2 1 9 -10 6 -12 22 -7 62 4 30 11 56 16 57 6 2 8
8 5 12 -11 18 59 145 75 135 4 -3 7 3 6 13 -1 12 6 17 21 16 16 0 20 3 13 11
-7 8 2 21 27 41 20 16 40 28 45 27 4 -2 8 1 8 7 0 5 10 14 21 21 17 9 20 8 14
-3 -3 -7 0 -5 8 4 11 14 16 15 26 5 10 -9 11 -9 6 4 -5 13 7 20 54 33 33 9 71
15 85 12 14 -3 26 -1 26 4 0 14 175 -3 195 -20 6 -5 14 -7 18 -4 3 3 16 0 29
-7 12 -7 30 -14 38 -15 8 -2 16 -8 18 -13 2 -6 9 -11 16 -11 7 0 21 -7 32 -16
10 -8 14 -13 7 -10 -13 7 -12 -19 2 -31 4 -4 5 -3 2 3 -8 13 20 28 27 15 3 -4
4 -17 1 -29 -2 -12 3 -23 11 -26 12 -4 12 -2 4 14 -13 24 -5 26 16 5 9 -8 13
-15 9 -15 -3 0 3 -10 14 -22 11 -11 18 -24 16 -28 -3 -5 2 -10 10 -14 8 -3 15
-13 15 -21 0 -10 -5 -13 -12 -9 -7 4 -10 4 -6 -1 4 -4 2 -15 -4 -24 -10 -13
-10 -14 2 -3 22 19 29 15 36 -25 4 -21 13 -52 20 -69 8 -18 9 -35 4 -40 -5 -5
2 -10 17 -11 16 0 21 2 13 7 -9 5 -9 9 -1 11 12 4 17 362 5 393 -3 9 -1 16 6
16 6 0 8 -5 4 -12 -5 -7 -3 -8 6 -3 11 7 10 10 -1 19 -8 6 -16 27 -18 46 -1
19 -4 36 -6 38 -4 4 -48 9 -160 17 -49 4 -94 9 -98 12 -4 3 -88 6 -185 8 -139
2 -195 -1 -262 -15z"/>
<path d="M1853 5007 c0 -7 9 -14 19 -14 10 -1 18 3 18 9 0 6 -3 8 -7 5 -3 -4
-11 -2 -18 3 -8 7 -12 6 -12 -3z"/>
<path d="M1960 5000 c-12 -7 -10 -9 7 -7 12 0 19 5 17 9 -6 10 -6 10 -24 -2z"/>
<path d="M5130 4985 c0 -7 30 -13 34 -7 3 4 -4 9 -15 9 -10 1 -19 0 -19 -2z"/>
<path d="M5190 4976 c7 -7 13 -7 20 0 6 6 3 10 -10 10 -13 0 -16 -4 -10 -10z"/>
<path d="M1804 4962 c23 -26 23 -26 23 -7 0 8 -3 13 -5 10 -3 -3 -12 1 -21 7
-10 8 -9 4 3 -10z"/>
<path d="M1900 4945 c0 -2 6 -8 13 -14 10 -8 14 -7 14 2 0 8 -6 14 -14 14 -7
0 -13 -1 -13 -2z"/>
<path d="M5270 4942 c0 -5 7 -9 15 -9 8 0 12 4 9 9 -3 4 -9 8 -15 8 -5 0 -9
-4 -9 -8z"/>
<path d="M5331 4927 c-8 -10 -7 -14 2 -14 8 0 14 6 14 14 0 7 -1 13 -2 13 -2
0 -8 -6 -14 -13z"/>
<path d="M1713 4915 c0 -8 4 -12 9 -9 5 3 6 10 3 15 -9 13 -12 11 -12 -6z"/>
<path d="M1773 4913 c0 -10 4 -10 16 -1 9 7 18 13 20 15 2 1 -5 1 -16 0 -11 0
-20 -7 -20 -14z"/>
<path d="M1875 4920 c3 -5 8 -10 11 -10 2 0 4 5 4 10 0 6 -5 10 -11 10 -5 0
-7 -4 -4 -10z"/>
<path d="M3456 4887 c3 -10 9 -15 12 -12 3 3 0 11 -7 18 -10 9 -11 8 -5 -6z"/>
<path d="M5414 4880 c0 -13 4 -16 10 -10 7 7 7 13 0 20 -6 6 -10 3 -10 -10z"/>
<path d="M5449 4883 c-13 -16 -12 -17 4 -4 9 7 17 15 17 17 0 8 -8 3 -21 -13z"/>
<path d="M1700 4880 c-9 -6 -10 -10 -3 -10 6 0 15 5 18 10 8 12 4 12 -15 0z"/>
<path d="M3340 4880 c-12 -7 -10 -9 7 -7 12 0 19 5 17 9 -6 10 -6 10 -24 -2z"/>
<path d="M3552 4885 c4 -5 3 -13 -2 -20 -7 -8 -5 -12 5 -12 8 0 11 5 8 10 -4
6 0 8 10 4 25 -9 21 0 -5 14 -13 6 -20 8 -16 4z"/>
<path d="M1815 4871 c-3 -5 -2 -12 3 -15 5 -3 9 1 9 9 0 17 -3 19 -12 6z"/>
<path d="M1640 4855 c-7 -9 -11 -17 -9 -20 3 -2 10 5 17 15 14 24 10 26 -8 5z"/>
<path d="M3278 4863 c7 -3 16 -2 19 1 4 3 -2 6 -13 5 -11 0 -14 -3 -6 -6z"/>
<path d="M3631 4862 c3 -19 -2 -25 -11 -12 -6 9 -10 10 -10 3 0 -19 14 -22 33
-8 15 11 15 13 2 18 -8 4 -14 3 -14 -1z"/>
<path d="M3990 4859 c0 -5 5 -7 10 -4 6 3 10 8 10 11 0 2 -4 4 -10 4 -5 0 -10
-5 -10 -11z"/>
<path d="M4016 4853 c-6 -14 -5 -15 5 -6 7 7 10 15 7 18 -3 3 -9 -2 -12 -12z"/>
<path d="M1569 4843 c-13 -16 -12 -17 4 -4 9 7 17 15 17 17 0 8 -8 3 -21 -13z"/>
<path d="M1750 4846 c0 -2 7 -7 16 -10 8 -3 12 -2 9 4 -6 10 -25 14 -25 6z"/>
<path d="M3435 4840 c-3 -5 -3 -10 2 -10 4 0 1 -5 -7 -11 -12 -8 -12 -10 -1
-7 8 2 15 12 17 21 3 19 -2 22 -11 7z"/>
<path d="M3493 4837 c-4 -6 -1 -7 7 -2 10 6 12 4 6 -10 -5 -15 -4 -16 9 -5 8
7 15 16 15 20 0 10 -30 8 -37 -3z"/>
<path d="M3593 4832 c2 -12 9 -28 17 -35 10 -10 11 -9 4 3 -5 8 -9 21 -10 28
-2 8 -5 17 -8 20 -4 3 -5 -4 -3 -16z"/>
<path d="M5539 4833 c-13 -16 -12 -17 4 -4 9 7 17 15 17 17 0 8 -8 3 -21 -13z"/>
<path d="M1494 4818 c-4 -7 -4 -10 1 -6 4 4 15 2 24 -5 14 -11 14 -10 2 6 -16
20 -18 21 -27 5z"/>
<path d="M1590 4820 c0 -5 5 -10 10 -10 6 0 10 5 10 10 0 6 -4 10 -10 10 -5 0
-10 -4 -10 -10z"/>
<path d="M3548 4808 c5 -21 17 -23 28 -6 5 7 3 8 -6 3 -9 -6 -12 -4 -8 7 4 8
1 15 -7 15 -7 0 -10 -8 -7 -19z"/>
<path d="M3670 4810 c13 -24 17 -25 17 -5 0 8 -6 16 -14 19 -11 4 -11 1 -3
-14z"/>
<path d="M3999 4813 c-13 -16 -12 -17 4 -4 16 13 21 21 13 21 -2 0 -10 -8 -17
-17z"/>
<path d="M5470 4816 c7 -7 13 -7 20 0 6 6 3 10 -10 10 -13 0 -16 -4 -10 -10z"/>
<path d="M5595 4810 c10 -11 20 -20 23 -20 3 0 -3 9 -13 20 -10 11 -20 20 -23
20 -3 0 3 -9 13 -20z"/>
<path d="M1654 4795 c0 -13 3 -22 7 -19 8 4 6 30 -2 38 -3 3 -5 -5 -5 -19z"/>
<path d="M5559 4818 c-5 -18 -6 -38 -1 -34 7 8 12 36 6 36 -2 0 -4 -1 -5 -2z"/>
<path d="M1536 4793 c-6 -14 -5 -15 5 -6 7 7 10 15 7 18 -3 3 -9 -2 -12 -12z"/>
<path d="M3246 4799 c3 -5 10 -6 16 -3 8 5 9 1 5 -10 -4 -11 -3 -15 4 -11 14
10 6 28 -14 31 -9 1 -15 -2 -11 -7z"/>
<path d="M3650 4801 c0 -6 4 -13 10 -16 6 -3 7 1 4 9 -7 18 -14 21 -14 7z"/>
<path d="M3199 4795 c-1 -3 -2 -8 -3 -12 -1 -5 -5 -15 -10 -23 -7 -12 -6 -13
4 -3 13 12 23 43 14 43 -2 0 -5 -2 -5 -5z"/>
<path d="M3627 4787 c-3 -8 1 -14 8 -14 7 0 11 6 8 14 -3 7 -6 13 -8 13 -2 0
-5 -6 -8 -13z"/>
<path d="M3313 4775 c0 -8 4 -12 9 -9 4 3 8 9 8 15 0 5 -4 9 -8 9 -5 0 -9 -7
-9 -15z"/>
<path d="M3388 4783 c6 -2 9 -10 6 -15 -4 -7 -2 -8 5 -4 13 9 5 26 -12 25 -9
0 -8 -2 1 -6z"/>
<path d="M3468 4783 c6 -3 10 -9 6 -14 -8 -14 2 -11 14 4 8 10 6 13 -11 14
-12 0 -16 -1 -9 -4z"/>
<path d="M3988 4783 c6 -3 10 -9 6 -14 -8 -14 2 -11 14 4 8 10 6 13 -11 14
-12 0 -16 -1 -9 -4z"/>
<path d="M3694 4760 c0 -13 4 -16 16 -11 8 5 23 7 33 6 9 -2 15 0 12 5 -3 5
-13 7 -23 5 -9 -1 -22 1 -27 6 -7 5 -11 1 -11 -11z"/>
<path d="M5610 4776 c0 -2 8 -10 18 -17 15 -13 16 -12 3 4 -13 16 -21 21 -21
13z"/>
<path d="M1400 4760 c-12 -7 -10 -9 7 -7 12 0 19 5 17 9 -6 10 -6 10 -24 -2z"/>
<path d="M1536 4761 c9 -9 34 -9 34 -1 0 5 -9 8 -20 7 -10 -1 -17 -3 -14 -6z"/>
<path d="M3214 4759 c-3 -6 -3 -13 0 -16 3 -4 6 -1 6 5 0 6 7 9 15 6 8 -4 15
-4 15 -1 0 11 -30 16 -36 6z"/>
<path d="M3526 4762 c-3 -5 1 -9 9 -9 8 0 12 4 9 9 -3 4 -7 8 -9 8 -2 0 -6 -4
-9 -8z"/>
<path d="M3586 4758 c3 -5 10 -6 15 -3 13 9 11 12 -6 12 -8 0 -12 -4 -9 -9z"/>
<path d="M4016 4753 c-6 -14 -5 -15 5 -6 7 7 10 15 7 18 -3 3 -9 -2 -12 -12z"/>
<path d="M5595 4751 c-3 -5 -2 -12 3 -15 5 -3 9 1 9 9 0 17 -3 19 -12 6z"/>
<path d="M1473 4734 c16 -20 52 -30 41 -12 -4 5 -9 7 -12 4 -3 -3 -15 2 -26
11 -21 18 -21 18 -3 -3z"/>
<path d="M3155 4740 c-3 -5 -4 -10 0 -10 3 0 1 -10 -5 -22 -11 -22 -11 -23 5
-3 9 11 19 19 23 17 3 -2 8 2 10 10 2 9 0 8 -7 -2 -10 -13 -15 -8 -12 13 2 10
-7 9 -14 -3z"/>
<path d="M3370 4739 c0 -5 5 -7 10 -4 6 3 10 8 10 11 0 2 -4 4 -10 4 -5 0 -10
-5 -10 -11z"/>
<path d="M1536 4727 c3 -10 9 -15 12 -12 3 3 0 11 -7 18 -10 9 -11 8 -5 -6z"/>
<path d="M3764 4723 c4 -4 16 -8 28 -10 12 -2 19 -1 16 2 -3 3 -16 8 -28 10
-12 2 -20 1 -16 -2z"/>
<path d="M3995 4720 c-3 -5 -1 -10 4 -10 6 0 11 5 11 10 0 6 -2 10 -4 10 -3 0
-8 -4 -11 -10z"/>
<path d="M1435 4709 c-4 -6 -5 -12 -2 -15 2 -3 7 2 10 11 7 17 1 20 -8 4z"/>
<path d="M1350 4701 c0 -6 4 -13 10 -16 6 -3 7 1 4 9 -7 18 -14 21 -14 7z"/>
<path d="M3690 4706 c0 -2 7 -7 16 -10 8 -3 12 -2 9 4 -6 10 -25 14 -25 6z"/>
<path d="M3830 4696 c13 -18 13 -19 -1 -14 -9 3 -16 1 -16 -6 0 -6 8 -12 17
-12 20 0 20 21 0 39 -11 9 -11 8 0 -7z"/>
<path d="M4016 4693 c-6 -14 -5 -15 5 -6 7 7 10 15 7 18 -3 3 -9 -2 -12 -12z"/>
<path d="M1295 4690 c-4 -6 -12 -7 -18 -4 -7 4 -9 4 -5 -1 4 -4 3 -13 -2 -20
-7 -8 -5 -12 5 -12 8 0 13 3 10 5 -3 3 2 14 12 24 9 10 13 18 10 18 -3 0 -9
-5 -12 -10z"/>
<path d="M1457 4693 c-10 -9 -9 -23 1 -23 5 0 9 7 9 15 0 17 -1 18 -10 8z"/>
<path d="M5806 4685 c-18 -14 -18 -14 1 -12 11 0 20 7 20 14 0 7 -1 13 -1 13
-1 0 -9 -7 -20 -15z"/>
<path d="M1390 4679 c0 -5 5 -7 10 -4 6 3 10 8 10 11 0 2 -4 4 -10 4 -5 0 -10
-5 -10 -11z"/>
<path d="M3050 4686 c0 -2 7 -7 16 -10 8 -3 12 -2 9 4 -6 10 -25 14 -25 6z"/>
<path d="M3190 4679 c0 -5 5 -7 10 -4 6 3 10 8 10 11 0 2 -4 4 -10 4 -5 0 -10
-5 -10 -11z"/>
<path d="M3215 4660 c3 -5 8 -10 11 -10 2 0 4 5 4 10 0 6 -5 10 -11 10 -5 0
-7 -4 -4 -10z"/>
<path d="M5836 4662 c-2 -4 -1 -14 4 -22 7 -11 9 -9 7 8 -1 24 -3 26 -11 14z"/>
<path d="M5867 4659 c7 -7 15 -10 18 -7 3 3 -2 9 -12 12 -14 6 -15 5 -6 -5z"/>
<path d="M3080 4640 c-9 -6 -10 -10 -3 -10 6 0 15 5 18 10 8 12 4 12 -15 0z"/>
<path d="M4035 4640 c3 -5 8 -10 11 -10 2 0 4 5 4 10 0 6 -5 10 -11 10 -5 0
-7 -4 -4 -10z"/>
<path d="M5766 4642 c-3 -5 1 -9 9 -9 8 0 15 4 15 9 0 4 -4 8 -9 8 -6 0 -12
-4 -15 -8z"/>
<path d="M1353 4615 c0 -8 4 -12 9 -9 5 3 6 10 3 15 -9 13 -12 11 -12 -6z"/>
<path d="M3995 4620 c-13 -6 -15 -9 -5 -9 8 0 22 4 30 9 18 12 2 12 -25 0z"/>
<path d="M1130 4616 c0 -2 8 -10 18 -17 15 -13 16 -12 3 4 -13 16 -21 21 -21
13z"/>
<path d="M1214 4609 c-3 -6 -2 -15 3 -20 5 -5 9 -1 9 11 0 23 -2 24 -12 9z"/>
<path d="M3045 4611 c-11 -5 -23 -7 -27 -4 -5 2 -8 0 -8 -5 0 -5 13 -9 28 -8
16 1 29 7 29 14 0 6 -1 12 -1 11 -1 0 -10 -4 -21 -8z"/>
<path d="M1179 4593 c-13 -16 -12 -17 4 -4 9 7 17 15 17 17 0 8 -8 3 -21 -13z"/>
<path d="M4053 4589 c-2 -23 3 -25 10 -4 4 8 3 16 -1 19 -4 3 -9 -4 -9 -15z"/>
<path d="M5886 4602 c-3 -5 1 -9 9 -9 8 0 12 4 9 9 -3 4 -7 8 -9 8 -2 0 -6 -4
-9 -8z"/>
<path d="M5953 4592 c-8 -14 -8 -19 1 -19 7 0 13 9 13 19 1 10 1 18 0 18 -1 0
-7 -8 -14 -18z"/>
<path d="M1110 4596 c0 -2 8 -10 18 -17 15 -13 16 -12 3 4 -13 16 -21 21 -21
13z"/>
<path d="M1094 4560 c0 -13 4 -16 10 -10 7 7 7 13 0 20 -6 6 -10 3 -10 -10z"/>
<path d="M3075 4560 c3 -5 8 -10 11 -10 2 0 4 5 4 10 0 6 -5 10 -11 10 -5 0
-7 -4 -4 -10z"/>
<path d="M3985 4560 c-3 -6 1 -7 9 -4 18 7 21 14 7 14 -6 0 -13 -4 -16 -10z"/>
<path d="M3070 4530 c6 -11 13 -20 16 -20 2 0 0 9 -6 20 -6 11 -13 20 -16 20
-2 0 0 -9 6 -20z"/>
<path d="M4029 4537 c6 -8 7 -18 3 -22 -4 -5 -1 -5 6 -1 10 6 10 11 1 22 -6 8
-14 14 -16 14 -3 0 0 -6 6 -13z"/>
<path d="M6093 4527 c0 -7 9 -14 19 -14 10 -1 18 3 18 9 0 6 -3 8 -7 5 -3 -4
-11 -2 -18 3 -8 7 -12 6 -12 -3z"/>
<path d="M965 4519 c-3 -4 2 -6 10 -5 21 3 28 13 10 13 -9 0 -18 -4 -20 -8z"/>
<path d="M1039 4528 c-6 -20 -6 -39 0 -42 4 -3 7 6 7 20 0 20 -4 32 -7 22z"/>
<path d="M2966 4522 c-3 -5 1 -9 9 -9 8 0 12 4 9 9 -3 4 -7 8 -9 8 -2 0 -6 -4
-9 -8z"/>
<path d="M3984 4510 c0 -13 4 -16 10 -10 7 7 7 13 0 20 -6 6 -10 3 -10 -10z"/>
<path d="M5996 4513 c-6 -14 -5 -15 5 -6 7 7 10 15 7 18 -3 3 -9 -2 -12 -12z"/>
<path d="M1083 4498 c-11 -19 -13 -39 -1 -32 5 3 7 9 4 12 -3 3 -1 11 5 19 6
7 9 13 6 13 -3 0 -9 -6 -14 -12z"/>
<path d="M950 4461 c0 -6 4 -13 10 -16 6 -3 7 1 4 9 -7 18 -14 21 -14 7z"/>
<path d="M3027 4459 c7 -7 15 -10 18 -7 3 3 -2 9 -12 12 -14 6 -15 5 -6 -5z"/>
<path d="M3999 4463 c-1 -5 -1 -12 0 -17 1 -5 -4 -6 -12 -3 -7 3 -14 -1 -14
-8 0 -8 7 -11 15 -7 9 3 13 1 9 -5 -3 -5 0 -10 8 -10 12 0 12 3 2 16 -10 12
-9 14 4 9 9 -4 16 -1 16 7 0 8 -7 11 -15 7 -10 -3 -13 -1 -8 6 4 7 5 12 2 12
-3 0 -7 -3 -7 -7z"/>
<path d="M6110 4466 c0 -2 7 -7 16 -10 8 -3 12 -2 9 4 -6 10 -25 14 -25 6z"/>
<path d="M889 4443 c-13 -16 -12 -17 4 -4 9 7 17 15 17 17 0 8 -8 3 -21 -13z"/>
<path d="M6175 4449 c-4 -6 -5 -12 -2 -15 2 -3 7 2 10 11 7 17 1 20 -8 4z"/>
<path d="M6270 4456 c0 -2 8 -10 18 -17 15 -13 16 -12 3 4 -13 16 -21 21 -21
13z"/>
<path d="M827 4439 c7 -7 15 -10 18 -7 3 3 -2 9 -12 12 -14 6 -15 5 -6 -5z"/>
<path d="M996 4433 c-6 -14 -5 -15 5 -6 7 7 10 15 7 18 -3 3 -9 -2 -12 -12z"/>
<path d="M6240 4446 c0 -2 8 -10 18 -17 15 -13 16 -12 3 4 -13 16 -21 21 -21
13z"/>
<path d="M775 4410 c-4 -6 -12 -7 -18 -4 -7 4 -9 4 -5 -1 4 -4 2 -15 -4 -24
-10 -12 -7 -12 8 2 11 9 23 15 26 12 2 -3 5 2 5 10 0 18 -3 19 -12 5z"/>
<path d="M2977 4401 c-3 -15 -1 -18 11 -14 11 5 13 3 7 -7 -5 -9 -4 -11 4 -6
9 6 9 12 -1 24 -7 10 -13 18 -14 20 -1 1 -4 -6 -7 -17z"/>
<path d="M3016 4407 c3 -10 9 -15 12 -12 3 3 0 11 -7 18 -10 9 -11 8 -5 -6z"/>
<path d="M850 4401 c0 -6 4 -12 8 -15 5 -3 9 1 9 9 0 8 -4 15 -9 15 -4 0 -8
-4 -8 -9z"/>
<path d="M1538 4405 c-2 -1 -39 -5 -82 -9 -43 -3 -81 -8 -84 -11 -12 -12 24
-35 57 -35 47 0 113 -19 106 -30 -3 -5 0 -12 6 -16 8 -4 9 -3 5 4 -14 23 11
12 48 -22 36 -31 82 -113 71 -124 -3 -3 0 -11 6 -19 6 -7 9 -22 6 -33 -3 -11
-2 -20 2 -20 10 0 7 -52 -3 -69 -6 -9 -5 -12 2 -7 12 7 11 -291 -1 -311 -4 -7
-3 -14 2 -17 10 -7 9 -25 -2 -43 -4 -6 -3 -14 2 -18 7 -4 7 -15 1 -30 -5 -14
-6 -25 -2 -25 4 0 7 -22 7 -50 0 -27 -4 -50 -9 -50 -5 0 -4 -6 2 -13 12 -14
11 -35 -1 -54 -4 -6 -3 -14 2 -18 6 -3 7 -15 1 -29 -4 -12 -4 -29 0 -36 5 -8
4 -22 -1 -31 -5 -10 -6 -20 -1 -22 9 -6 9 -88 -1 -104 -4 -6 -3 -14 2 -18 7
-4 7 -15 1 -30 -5 -14 -6 -25 -2 -25 5 0 7 -19 5 -42 -4 -50 -4 -55 1 -88 2
-14 -1 -30 -6 -37 -5 -7 -5 -14 1 -17 6 -4 7 -15 1 -30 -4 -12 -4 -29 0 -36 5
-8 4 -22 -1 -31 -5 -10 -5 -20 0 -23 8 -5 6 -57 -3 -82 -2 -6 0 -17 4 -24 5
-8 4 -22 -1 -31 -5 -10 -6 -20 -1 -22 9 -6 9 -88 -1 -104 -4 -6 -3 -14 2 -18
7 -4 7 -15 1 -30 -5 -14 -6 -25 -2 -25 5 0 7 -19 5 -42 -4 -50 -4 -55 1 -88 2
-14 -1 -30 -6 -37 -5 -7 -5 -14 1 -17 6 -4 7 -15 1 -30 -4 -12 -4 -29 0 -36 5
-8 5 -21 0 -31 -5 -9 -6 -19 -3 -23 3 -3 7 -72 7 -153 3 -290 -24 -377 -131
-432 -38 -19 -61 -24 -158 -36 -12 -1 -21 -11 -23 -23 -4 -24 -4 -23 83 -26
28 -1 56 -5 64 -10 10 -6 12 -6 7 2 -10 17 56 16 73 0 9 -8 12 -9 7 -1 -4 8
27 11 116 12 68 0 155 2 195 4 50 3 70 0 66 -7 -5 -8 -3 -8 8 0 17 12 123 18
115 6 -3 -5 1 -9 9 -9 8 0 12 4 9 9 -3 4 29 8 70 8 42 0 76 4 76 8 0 11 -45
32 -69 32 -35 0 -117 31 -146 55 -25 22 -28 27 -15 36 13 9 13 10 -2 6 -17 -6
-42 15 -31 26 3 4 2 7 -4 7 -6 0 -17 24 -26 53 -17 58 -23 140 -9 119 7 -11
10 -9 14 6 4 14 2 19 -7 15 -20 -7 -18 445 2 468 13 15 12 17 -4 15 -19 -1
-24 23 -11 62 5 15 3 22 -5 22 -8 0 -9 3 -1 8 6 4 14 16 17 26 6 15 5 17 -6 8
-10 -9 -13 -5 -11 17 1 16 5 39 9 51 5 17 4 21 -6 15 -8 -4 -3 2 11 14 l25 20
-25 -5 c-14 -3 -21 -2 -15 3 12 10 16 43 5 43 -4 0 -6 12 -4 28 2 15 5 62 5
105 1 61 5 77 15 73 8 -3 13 -2 13 2 -1 4 -1 14 0 22 1 13 2 13 11 0 6 -10 10
-11 10 -2 0 6 5 12 11 12 6 0 9 -7 5 -15 -5 -13 -2 -13 18 0 19 13 25 13 29 3
4 -9 6 -9 6 -1 1 8 10 9 31 3 17 -5 28 -6 26 -2 -2 4 21 8 52 9 31 1 58 6 60
12 2 6 9 8 14 5 7 -4 8 -2 4 5 -4 6 -11 9 -16 6 -5 -3 -12 5 -15 17 -13 41
-53 85 -77 85 -147 1 -188 4 -183 13 3 6 1 10 -4 10 -6 0 -11 5 -11 11 0 5 5
7 10 4 6 -4 5 5 -2 20 -10 22 -9 28 3 36 9 5 10 9 2 9 -9 0 -12 27 -12 95 1
52 5 93 9 90 4 -3 10 2 13 10 4 8 1 12 -7 9 -17 -7 -21 83 -4 104 10 12 10 14
0 8 -9 -5 -12 1 -10 23 1 17 7 31 13 31 6 0 6 3 -1 8 -15 9 -15 144 0 154 8 6
8 8 -1 8 -8 0 -11 57 -10 204 0 113 4 203 8 201 4 -3 9 2 12 10 4 8 1 12 -6 9
-7 -2 -13 4 -14 16 -1 11 1 19 5 16 4 -2 7 18 8 45 0 33 7 56 20 70 12 14 13
19 4 14 -13 -8 -13 -7 0 11 30 40 102 104 111 99 5 -4 9 -2 9 4 0 5 8 10 18
11 64 2 113 14 128 31 16 18 16 19 -7 20 -13 1 -35 4 -49 6 -27 5 -667 12
-672 8z"/>
<path d="M3239 4406 c-3 -3 -43 -6 -91 -7 -47 -1 -92 -6 -100 -11 -22 -14 15
-34 77 -42 61 -7 120 -34 154 -70 22 -23 22 -25 4 -36 -16 -10 -16 -10 3 -5
17 4 25 -2 39 -30 9 -20 14 -43 11 -51 -3 -8 -1 -14 5 -14 5 0 10 -15 10 -32
0 -18 1 -94 2 -168 2 -109 -1 -138 -13 -148 -8 -8 -10 -11 -4 -8 7 3 14 -1 17
-8 3 -8 1 -17 -6 -20 -7 -2 -7 -5 -2 -5 11 -1 12 -121 1 -139 -3 -6 -3 -13 2
-16 7 -4 10 -344 4 -543 l-2 -63 -284 0 c-225 0 -286 3 -295 13 -6 8 -8 17 -4
20 3 4 1 7 -5 7 -16 0 -15 -13 0 -28 10 -10 3 -12 -35 -9 -26 2 -53 0 -59 -5
-15 -8 -18 -30 -6 -39 4 -3 9 -17 10 -32 1 -15 6 -27 10 -27 15 0 8 -19 -9
-23 -23 -6 -16 -6 230 -8 122 0 195 -4 191 -10 -3 -6 -15 -7 -27 -4 -20 5 -20
5 -4 -5 15 -9 22 -8 36 4 15 14 39 16 135 14 64 -1 116 -5 116 -8 0 -3 -6 -12
-12 -19 -8 -8 -8 -11 -2 -8 7 4 13 -5 16 -23 4 -29 -4 -36 -35 -31 -5 1 -6 -3
-2 -8 3 -6 12 -8 20 -4 17 6 16 14 19 -212 0 -90 -3 -153 -9 -157 -7 -5 -7 -8
0 -8 6 0 10 -95 9 -268 -1 -279 -8 -382 -27 -417 -6 -11 -10 -23 -9 -27 1 -5
-3 -8 -10 -8 -6 0 -8 -3 -5 -7 9 -8 -13 -34 -23 -28 -4 3 -7 -2 -6 -10 0 -9
-12 -23 -29 -33 -16 -9 -33 -21 -37 -27 -5 -7 -8 -7 -8 0 0 6 -4 4 -8 -3 -5
-7 -35 -15 -68 -18 -68 -7 -94 -23 -71 -45 10 -11 38 -14 98 -14 64 0 87 -3
97 -15 11 -13 11 -13 6 2 -5 15 -2 16 25 8 18 -5 33 -5 36 0 8 13 36 0 28 -14
-3 -6 -1 -6 8 2 17 16 43 16 33 0 -6 -10 -4 -10 7 -2 21 16 82 18 73 2 -6 -10
-5 -10 7 -2 8 7 45 11 87 10 39 0 72 3 72 7 0 5 4 6 9 2 18 -11 71 -12 71 -2
0 6 7 2 15 -9 15 -19 15 -19 8 1 -7 19 -6 19 20 2 16 -10 25 -12 22 -5 -4 9
10 14 47 15 64 3 117 11 131 20 13 8 -21 21 -100 38 -67 15 -135 53 -128 72 2
7 -1 15 -7 19 -7 5 -8 2 -3 -7 5 -8 -1 -6 -13 5 -12 10 -19 23 -16 27 3 5 0 9
-5 9 -6 0 -11 9 -11 20 0 11 -4 20 -10 20 -5 0 -10 10 -10 23 0 12 -2 48 -5
80 -3 41 -1 56 7 51 7 -5 8 -3 2 7 -5 8 -9 42 -10 75 -1 65 6 72 42 44 18 -14
18 -14 0 7 -10 12 -23 21 -30 20 -8 -1 -11 42 -12 149 0 82 -4 155 -8 162 -4
7 -2 12 5 12 7 0 10 3 6 6 -3 3 -2 17 3 30 7 17 6 22 -3 18 -14 -5 -17 42 -4
64 5 7 3 12 -5 12 -9 0 -9 3 -2 8 6 4 14 16 17 26 6 14 5 16 -5 8 -10 -8 -13
2 -13 48 0 32 2 57 5 55 3 -2 4 43 4 98 -1 65 3 105 10 109 8 6 8 8 -1 8 -6 0
-9 8 -6 19 3 14 12 17 35 15 16 -2 34 -6 39 -9 5 -4 9 -2 9 2 0 5 15 9 34 9
19 0 32 -5 29 -10 -4 -5 -1 -6 8 0 8 5 40 9 72 10 54 1 62 -3 58 -29 -1 -5 4
-5 11 -1 16 10 68 15 66 6 -1 -4 4 -20 11 -36 18 -45 19 -72 1 -68 -8 2 -11 0
-7 -5 5 -4 14 -8 20 -8 29 0 37 -219 12 -336 -19 -94 -69 -198 -130 -272 -53
-66 -191 -180 -206 -171 -5 3 -9 2 -8 -3 4 -25 -2 -53 -11 -48 -6 4 -7 11 -4
17 5 7 2 8 -5 4 -9 -6 -9 -12 2 -24 11 -12 15 -40 13 -98 -1 -79 0 -81 19 -68
11 8 28 14 38 14 23 0 157 57 178 76 19 17 33 19 23 2 -4 -7 -3 -8 4 -4 7 4
12 12 12 17 0 16 42 48 63 49 9 0 16 4 15 8 -2 5 25 36 59 70 34 34 60 62 57
62 -3 0 4 10 16 22 11 12 20 25 20 29 0 5 10 19 23 32 12 12 23 29 25 37 2 8
9 18 15 22 7 4 8 8 3 8 -6 0 -1 7 10 16 10 8 14 13 7 10 -6 -3 -3 12 8 33 10
22 19 45 19 52 0 6 8 9 18 7 11 -3 19 0 19 7 0 7 -6 11 -13 8 -14 -5 -12 26 5
69 5 13 9 26 10 31 0 4 1 8 2 10 10 45 15 217 6 217 -5 0 -6 3 -4 8 3 4 -2 41
-10 82 -8 41 -16 82 -17 90 -2 8 2 18 8 22 7 5 6 8 -4 8 -16 0 -47 82 -41 109
1 7 -2 10 -8 6 -6 -3 -11 -2 -11 4 0 5 -4 20 -9 33 -5 13 -9 27 -9 31 -1 4 -8
15 -17 23 -10 10 -13 25 -10 38 5 17 4 18 -4 6 -6 -8 -11 -10 -11 -4 0 6 -11
28 -25 48 -13 20 -21 36 -18 36 4 0 -1 6 -12 13 -11 9 -15 19 -10 27 5 8 4 11
-2 7 -6 -4 -24 10 -39 31 -65 85 -255 255 -347 311 -20 12 -35 26 -33 30 3 4
-3 7 -13 8 -14 1 -18 -7 -20 -45 -1 -25 -7 -50 -14 -54 -8 -5 -9 -8 0 -8 7 0
11 -19 11 -50 1 -40 -3 -53 -21 -65 -12 -8 -17 -15 -11 -15 5 0 15 5 22 12 9
9 12 7 10 -12 -1 -14 2 -41 6 -60 8 -34 7 -34 -9 -15 -16 20 -16 20 -5 -2 6
-13 15 -23 20 -23 6 0 10 -8 10 -17 0 -10 7 -27 15 -37 13 -17 13 -22 -3 -40
-13 -16 -13 -18 -1 -8 9 6 20 8 24 4 5 -4 5 -1 1 6 -12 21 8 13 47 -19 20 -17
34 -35 31 -41 -4 -6 -2 -8 3 -5 6 4 19 -5 29 -19 11 -14 29 -38 42 -52 12 -15
20 -33 17 -40 -3 -7 -1 -11 4 -8 13 8 64 -82 57 -100 -3 -7 -2 -13 2 -11 4 1
8 -2 10 -8 1 -5 -8 -10 -21 -10 -19 -2 -30 11 -61 72 l-38 73 -110 0 c-70 0
-107 4 -103 10 3 6 2 10 -4 10 -7 0 -7 8 -1 26 7 16 7 23 0 19 -6 -3 -10 -1
-10 4 0 6 6 11 13 11 8 0 9 3 1 8 -16 11 -18 306 -2 296 10 -6 10 -4 2 7 -16
22 -17 78 -2 96 7 9 8 14 3 11 -7 -4 -11 42 -13 132 -2 137 -2 139 19 135 12
-3 18 -1 15 3 -4 4 -13 7 -19 7 -15 0 -17 135 -2 135 6 0 5 3 -1 8 -16 10 -16
125 0 119 6 -3 12 4 12 14 0 13 -3 15 -13 7 -10 -8 -13 -6 -10 8 1 11 7 25 11
33 6 9 5 12 -1 8 -5 -4 -8 6 -5 23 2 17 8 28 12 25 4 -3 8 1 7 8 -1 36 4 57
13 52 5 -3 7 0 5 7 -8 19 64 101 82 94 8 -3 11 -1 8 4 -8 13 38 30 95 36 60 6
77 12 84 29 3 10 -1 15 -12 16 -9 0 -26 3 -37 6 -25 6 -660 15 -666 9z"/>
<path d="M4030 4401 c0 -6 4 -13 10 -16 6 -3 7 1 4 9 -7 18 -14 21 -14 7z"/>
<path d="M4927 4404 c-1 -2 -36 -4 -77 -5 -41 -2 -88 -5 -104 -8 -28 -6 -29
-7 -12 -23 11 -11 33 -18 57 -18 21 0 39 -5 39 -11 0 -5 5 -7 10 -4 14 9 52
-4 45 -16 -3 -5 1 -6 9 -3 28 11 123 -102 112 -132 -4 -10 -2 -12 6 -8 8 5 9
2 5 -9 -3 -10 -2 -17 3 -17 6 0 10 -5 10 -11 0 -5 -4 -8 -8 -5 -5 3 -9 -1 -9
-9 0 -8 4 -12 9 -9 10 6 9 58 12 -521 2 -264 1 -508 -1 -542 l-5 -63 -344 0
c-339 0 -344 0 -344 -20 0 -11 7 -37 15 -57 9 -20 14 -42 11 -49 -3 -8 3 -10
16 -6 11 3 24 -1 29 -9 5 -8 9 -9 9 -3 0 8 74 11 240 12 183 1 239 -2 234 -11
-5 -8 -3 -8 7 1 15 13 49 16 49 4 0 -5 7 -17 16 -28 15 -18 15 -18 5 3 -15 29
-16 28 24 29 34 1 34 0 33 -42 0 -23 3 -47 6 -53 4 -6 2 -11 -4 -11 -7 0 -8
-7 -3 -17 10 -21 9 -315 0 -330 -4 -6 -4 -13 0 -16 8 -8 7 -559 -2 -617 -18
-132 -74 -204 -180 -230 -110 -28 -125 -34 -118 -41 8 -8 66 -17 138 -23 17
-1 36 -6 44 -10 9 -6 12 -5 8 1 -4 6 4 9 21 6 67 -9 452 -7 453 2 0 6 4 1 9
-10 7 -16 9 -16 9 -4 1 14 7 16 36 9 20 -5 33 -4 29 1 -3 5 2 9 11 9 10 0 13
-5 9 -13 -5 -8 -3 -8 9 2 9 7 30 11 47 9 16 -3 30 -1 30 4 0 4 9 8 20 8 11 0
20 4 20 8 0 9 -41 23 -120 43 -53 13 -115 50 -131 80 -9 17 -8 20 2 14 8 -5
10 -4 5 3 -4 7 -14 12 -23 12 -9 0 -13 3 -10 7 4 3 2 12 -4 19 -6 8 -9 21 -5
29 3 9 2 14 -3 11 -14 -9 -19 41 -20 186 0 119 2 139 17 148 15 10 15 11 0 6
-14 -4 -17 3 -17 50 0 31 4 52 10 49 5 -4 9 -1 9 4 0 6 -4 11 -10 11 -15 0
-12 57 3 63 10 4 10 6 0 6 -7 1 -13 10 -13 22 0 11 4 18 8 15 5 -3 9 1 9 9 0
8 -4 12 -9 9 -4 -3 -8 9 -8 25 0 18 5 31 13 31 8 0 8 3 2 8 -16 10 -17 64 -3
74 9 5 9 8 2 8 -8 0 -12 28 -12 80 0 44 3 78 7 76 4 -3 8 1 8 9 0 8 -4 12 -9
9 -4 -3 -8 9 -8 25 0 18 5 31 13 31 8 0 8 3 1 8 -5 4 -11 33 -12 64 -1 53 0
56 20 53 11 -3 17 -1 14 3 -4 4 -13 7 -19 7 -17 0 -21 43 -5 62 9 12 10 15 1
9 -9 -5 -13 1 -13 19 0 14 4 24 8 21 5 -3 9 1 9 9 0 8 -4 12 -9 9 -4 -3 -8 9
-8 25 0 18 5 31 13 31 8 0 8 3 2 8 -16 10 -17 64 -3 74 9 5 9 8 2 8 -8 0 -12
28 -12 80 0 44 3 78 7 76 4 -3 8 1 8 9 0 8 -4 12 -9 9 -4 -3 -8 9 -8 25 0 18
5 31 13 31 8 0 8 3 1 8 -13 9 -17 125 -4 117 6 -3 10 -1 10 4 0 6 -4 11 -10
11 -15 0 -12 57 3 63 10 4 10 6 0 6 -7 1 -13 10 -13 22 0 11 4 18 8 15 5 -3 9
1 9 9 0 8 -4 12 -9 9 -4 -3 -8 9 -8 25 0 18 5 31 13 31 8 0 8 3 2 8 -16 10
-17 64 -3 74 9 5 9 8 2 8 -16 0 -16 140 0 140 8 0 8 2 -1 8 -11 7 -24 182 -13
182 3 0 5 20 4 45 -1 25 2 48 7 51 5 3 7 10 4 15 -4 5 -1 9 5 9 6 0 9 4 6 9
-8 13 19 63 54 100 28 28 41 36 63 32 4 0 7 3 7 9 0 9 51 26 100 32 30 4 67
24 59 32 -12 12 -128 18 -402 20 -158 1 -288 1 -290 0z"/>
<path d="M6226 4398 c3 -5 10 -6 15 -3 13 9 11 12 -6 12 -8 0 -12 -4 -9 -9z"/>
<path d="M6350 4401 c0 -5 8 -15 18 -22 15 -12 16 -12 5 2 -7 9 -10 19 -6 22
3 4 1 7 -5 7 -7 0 -12 -4 -12 -9z"/>
<path d="M706 4378 c3 -5 10 -6 15 -3 13 9 11 12 -6 12 -8 0 -12 -4 -9 -9z"/>
<path d="M3997 4373 c-10 -9 -9 -23 1 -23 5 0 9 7 9 15 0 17 -1 18 -10 8z"/>
<path d="M813 4353 c0 -9 4 -10 12 -3 7 5 15 7 18 3 4 -3 7 -1 7 5 0 6 -8 10
-18 9 -10 0 -19 -7 -19 -14z"/>
<path d="M866 4358 c3 -5 10 -6 15 -3 13 9 11 12 -6 12 -8 0 -12 -4 -9 -9z"/>
<path d="M3959 4353 c-13 -16 -12 -17 4 -4 16 13 21 21 13 21 -2 0 -10 -8 -17
-17z"/>
<path d="M6307 4359 c7 -7 15 -10 18 -7 3 3 -2 9 -12 12 -14 6 -15 5 -6 -5z"/>
<path d="M6353 4327 c-1 -11 -1 -18 0 -16 2 2 8 11 15 20 9 12 9 16 -1 16 -7
0 -14 -9 -14 -20z"/>
<path d="M730 4318 c0 -6 3 -8 7 -5 3 4 13 1 22 -6 14 -11 14 -10 2 6 -15 20
-31 22 -31 5z"/>
<path d="M590 4316 c0 -2 8 -10 18 -17 15 -13 16 -12 3 4 -13 16 -21 21 -21
13z"/>
<path d="M2130 4306 c0 -2 7 -7 16 -10 8 -3 12 -2 9 4 -6 10 -25 14 -25 6z"/>
<path d="M2316 4293 c-6 -14 -5 -15 5 -6 7 7 10 15 7 18 -3 3 -9 -2 -12 -12z"/>
<path d="M3174 4303 c3 -6 -1 -16 -10 -21 -15 -8 -14 -10 3 -14 14 -4 19 0 18
13 -1 10 -5 22 -10 26 -4 5 -5 3 -1 -4z"/>
<path d="M3800 4300 c-8 -5 -12 -12 -9 -15 4 -3 12 1 19 10 14 17 11 19 -10 5z"/>
<path d="M3955 4300 c-3 -5 -1 -10 4 -10 6 0 11 5 11 10 0 6 -2 10 -4 10 -3 0
-8 -4 -11 -10z"/>
<path d="M4020 4300 c-9 -6 -10 -10 -3 -10 6 0 15 5 18 10 8 12 4 12 -15 0z"/>
<path d="M4775 4301 c-3 -5 -2 -12 3 -15 5 -3 9 1 9 9 0 17 -3 19 -12 6z"/>
<path d="M5557 4303 c-4 -3 -2 -12 4 -20 9 -10 8 -13 -7 -10 -11 1 -25 7 -33
11 -9 6 -12 5 -8 -1 4 -6 -4 -10 -18 -10 -15 0 -22 4 -18 11 3 6 1 6 -7 -1
-10 -9 -17 -10 -27 -2 -16 14 -16 9 -3 -26 8 -21 14 -24 35 -19 17 4 25 2 25
-7 0 -11 3 -11 11 1 7 11 9 5 6 -25 -3 -38 -5 -40 -38 -40 -27 0 -34 -4 -34
-20 0 -14 6 -19 23 -18 12 0 53 1 91 2 57 1 69 4 73 19 5 16 -1 18 -39 16 -44
-3 -44 -3 -42 29 4 44 8 50 27 35 12 -10 14 -10 8 0 -9 14 15 17 30 2 6 -6 10
-1 12 17 1 14 7 32 12 39 8 8 8 14 0 19 -6 4 -9 1 -8 -7 2 -7 -3 -12 -10 -10
-8 1 -11 -2 -7 -8 9 -15 -31 -12 -44 3 -6 8 -8 17 -4 20 3 4 4 7 1 7 -2 0 -8
-3 -11 -7z"/>
<path d="M6470 4296 c7 -7 13 -7 20 0 6 6 3 10 -10 10 -13 0 -16 -4 -10 -10z"/>
<path d="M1391 4287 c-8 -10 -7 -14 2 -14 8 0 14 6 14 14 0 7 -1 13 -2 13 -2
0 -8 -6 -14 -13z"/>
<path d="M1475 4294 c2 -4 0 -14 -5 -23 -6 -13 -4 -17 10 -17 15 0 17 3 7 15
-7 8 -10 16 -9 18 2 3 1 7 -2 9 -3 2 -4 1 -1 -2z"/>
<path d="M2215 4290 c-4 -6 -15 -8 -26 -5 -12 4 -19 2 -19 -6 0 -7 3 -10 6 -6
3 3 16 2 28 -3 18 -6 22 -4 22 11 0 22 -2 23 -11 9z"/>
<path d="M3213 4278 c0 -13 1 -17 4 -10 3 6 10 9 16 5 7 -4 6 1 -2 10 -17 21
-17 21 -18 -5z"/>
<path d="M3753 4285 c0 -8 4 -12 9 -9 5 3 6 10 3 15 -9 13 -12 11 -12 -6z"/>
<path d="M3821 4278 c-13 -22 -13 -22 4 -8 17 13 18 13 13 -1 -4 -9 -1 -16 7
-16 8 0 11 7 7 15 -3 9 -1 13 5 9 5 -3 10 0 10 8 0 11 -4 12 -13 4 -8 -7 -13
-7 -16 1 -1 5 -9 0 -17 -12z"/>
<path d="M4876 4287 c3 -10 9 -15 12 -12 3 3 0 11 -7 18 -10 9 -11 8 -5 -6z"/>
<path d="M640 4280 c-9 -6 -10 -10 -3 -10 6 0 15 5 18 10 8 12 4 12 -15 0z"/>
<path d="M670 4279 c0 -5 6 -8 13 -6 6 1 11 -5 9 -13 -2 -8 0 -11 4 -7 15 15
11 33 -7 34 -11 1 -19 -2 -19 -8z"/>
<path d="M1527 4277 c3 -4 7 -6 10 -3 3 2 16 1 29 -4 17 -7 22 -6 18 3 -2 7
-17 12 -33 12 -16 1 -27 -3 -24 -8z"/>
<path d="M3250 4280 c0 -5 5 -10 11 -10 5 0 7 5 4 10 -3 6 -8 10 -11 10 -2 0
-4 -4 -4 -10z"/>
<path d="M4749 4278 c7 -10 10 -18 6 -18 -4 0 -2 -7 5 -15 7 -8 18 -15 24 -15
6 0 3 5 -7 11 -9 6 -15 14 -12 18 2 5 -3 15 -13 22 -15 13 -16 12 -3 -3z"/>
<path d="M6560 4286 c0 -2 8 -10 18 -17 15 -13 16 -12 3 4 -13 16 -21 21 -21
13z"/>
<path d="M2114 4272 c3 -5 0 -13 -6 -15 -9 -4 -10 -6 -1 -6 17 -1 25 16 12 25
-7 4 -9 3 -5 -4z"/>
<path d="M520 4260 c-9 -6 -10 -10 -3 -10 6 0 15 5 18 10 8 12 4 12 -15 0z"/>
<path d="M2277 4257 c4 -6 0 -8 -10 -4 -25 9 -21 0 6 -14 12 -6 19 -8 15 -4
-4 5 -3 13 2 20 7 8 5 12 -5 12 -8 0 -11 -5 -8 -10z"/>
<path d="M3918 4263 c7 -3 16 -2 19 1 4 3 -2 6 -13 5 -11 0 -14 -3 -6 -6z"/>
<path d="M4914 4238 c-1 -15 3 -28 9 -28 6 0 8 3 4 6 -3 3 -2 16 3 28 6 16 5
23 -3 23 -7 0 -12 -13 -13 -29z"/>
<path d="M5398 4248 c2 -10 6 -18 7 -18 1 0 5 8 7 18 3 11 0 19 -7 19 -7 0
-10 -8 -7 -19z"/>
<path d="M4860 4249 c0 -5 -4 -8 -9 -4 -5 3 -12 1 -15 -4 -4 -5 2 -8 11 -7 15
3 33 26 19 26 -3 0 -6 -5 -6 -11z"/>
<path d="M5648 4248 c-7 -17 15 -19 29 -3 4 4 3 5 -4 2 -6 -4 -13 -2 -15 5 -3
8 -6 6 -10 -4z"/>
<path d="M6617 4250 c7 -8 20 -15 29 -16 9 -1 13 1 9 4 -4 4 -10 7 -13 7 -4 0
-14 4 -22 9 -12 7 -13 6 -3 -4z"/>
<path d="M619 4233 c-13 -16 -12 -17 4 -4 9 7 17 15 17 17 0 8 -8 3 -21 -13z"/>
<path d="M650 4239 c0 -5 5 -7 10 -4 6 3 10 8 10 11 0 2 -4 4 -10 4 -5 0 -10
-5 -10 -11z"/>
<path d="M1510 4240 c0 -5 5 -10 11 -10 5 0 7 5 4 10 -3 6 -8 10 -11 10 -2 0
-4 -4 -4 -10z"/>
<path d="M3065 4240 c-3 -6 1 -7 9 -4 18 7 21 14 7 14 -6 0 -13 -4 -16 -10z"/>
<path d="M3160 4232 c-18 -14 -19 -19 -7 -19 9 0 13 5 10 10 -4 6 0 8 9 5 9
-4 15 0 15 8 0 18 0 18 -27 -4z"/>
<path d="M3714 4234 c1 -7 6 -17 10 -21 4 -4 7 -3 6 2 -5 22 1 29 11 15 8 -12
10 -12 7 -1 -5 18 -37 23 -34 5z"/>
<path d="M3780 4235 c-11 -13 -10 -14 5 -9 11 5 16 4 12 -3 -3 -5 0 -10 8 -10
10 0 12 4 5 12 -5 7 -7 15 -3 18 3 4 2 7 -4 7 -6 0 -16 -7 -23 -15z"/>
<path d="M3870 4240 c0 -5 5 -10 10 -10 6 0 10 5 10 10 0 6 -4 10 -10 10 -5 0
-10 -4 -10 -10z"/>
<path d="M3939 4233 c-13 -16 -12 -17 4 -4 16 13 21 21 13 21 -2 0 -10 -8 -17
-17z"/>
<path d="M4014 4234 c1 -8 4 -15 7 -16 2 -2 3 -1 2 1 -2 2 2 9 7 16 7 8 5 12
-4 12 -8 0 -13 -6 -12 -13z"/>
<path d="M6670 4236 c0 -2 8 -10 18 -17 15 -13 16 -12 3 4 -13 16 -21 21 -21
13z"/>
<path d="M550 4221 c0 -6 4 -13 10 -16 6 -3 7 1 4 9 -7 18 -14 21 -14 7z"/>
<path d="M1430 4221 c0 -6 5 -13 12 -17 6 -4 8 -3 4 4 -3 5 0 13 6 15 8 3 6 6
-4 6 -10 1 -18 -3 -18 -8z"/>
<path d="M1473 4213 c0 -9 4 -10 14 -2 7 6 13 12 13 14 0 1 -6 2 -13 2 -8 0
-14 -6 -14 -14z"/>
<path d="M1593 4208 c-2 -18 0 -20 7 -8 12 18 13 30 2 30 -4 0 -9 -10 -9 -22z"/>
<path d="M2147 4212 c4 -9 2 -13 -4 -9 -5 3 -10 0 -10 -8 0 -12 4 -12 21 2 12
10 22 18 24 19 1 1 -6 4 -17 7 -15 3 -18 1 -14 -11z"/>
<path d="M2230 4220 c0 -5 5 -10 10 -10 6 0 10 5 10 10 0 6 -4 10 -10 10 -5 0
-10 -4 -10 -10z"/>
<path d="M3107 4219 c7 -7 15 -10 18 -7 3 3 -2 9 -12 12 -14 6 -15 5 -6 -5z"/>
<path d="M3197 4215 c-4 -8 -3 -16 1 -19 4 -3 9 4 9 15 2 23 -3 25 -10 4z"/>
<path d="M3840 4215 c-7 -9 -8 -15 -2 -15 5 0 12 7 16 15 3 8 4 15 2 15 -2 0
-9 -7 -16 -15z"/>
<path d="M3956 4215 c-3 -9 -11 -13 -17 -9 -8 5 -9 3 -4 -5 6 -10 11 -9 23 3
9 8 13 18 10 21 -3 3 -8 -1 -12 -10z"/>
<path d="M4807 4219 c7 -7 15 -10 18 -7 3 3 -2 9 -12 12 -14 6 -15 5 -6 -5z"/>
<path d="M5466 4222 c-3 -5 1 -9 9 -9 8 0 15 4 15 9 0 4 -4 8 -9 8 -6 0 -12
-4 -15 -8z"/>
<path d="M6586 4222 c-2 -4 4 -8 14 -8 10 0 16 4 14 8 -3 4 -9 8 -14 8 -5 0
-11 -4 -14 -8z"/>
<path d="M436 4212 c-5 -9 -2 -39 5 -46 3 -3 5 8 4 24 0 32 -1 35 -9 22z"/>
<path d="M3050 4216 c0 -2 8 -10 18 -17 15 -13 16 -12 3 4 -13 16 -21 21 -21
13z"/>
<path d="M3290 4216 c0 -2 8 -10 18 -17 15 -13 16 -12 3 4 -13 16 -21 21 -21
13z"/>
<path d="M4857 4209 c7 -7 15 -10 18 -7 3 3 -2 9 -12 12 -14 6 -15 5 -6 -5z"/>
<path d="M4976 4207 c3 -10 9 -15 12 -12 3 3 0 11 -7 18 -10 9 -11 8 -5 -6z"/>
<path d="M5370 4210 c-9 -6 -10 -10 -3 -10 6 0 15 5 18 10 8 12 4 12 -15 0z"/>
<path d="M6650 4216 c0 -2 8 -10 18 -17 15 -13 16 -12 3 4 -13 16 -21 21 -21
13z"/>
<path d="M606 4202 c-3 -5 1 -9 9 -9 8 0 12 4 9 9 -3 4 -7 8 -9 8 -2 0 -6 -4
-9 -8z"/>
<path d="M3746 4198 c3 -4 9 -8 15 -8 5 0 9 4 9 8 0 5 -7 9 -15 9 -8 0 -12 -4
-9 -9z"/>
<path d="M4935 4200 c-4 -6 -1 -9 7 -8 7 2 12 -3 10 -10 -1 -8 2 -11 8 -7 8 5
7 11 -1 21 -14 17 -16 17 -24 4z"/>
<path d="M5414 4198 c-5 -7 -3 -8 6 -3 10 6 12 4 7 -8 -4 -11 -2 -14 9 -10 11
4 12 9 3 19 -14 17 -16 17 -25 2z"/>
<path d="M515 4191 c-3 -5 -2 -12 3 -15 5 -3 9 1 9 9 0 17 -3 19 -12 6z"/>
<path d="M4896 4187 c3 -10 9 -15 12 -12 3 3 0 11 -7 18 -10 9 -11 8 -5 -6z"/>
<path d="M6635 4191 c-3 -5 -2 -12 3 -15 5 -3 9 1 9 9 0 17 -3 19 -12 6z"/>
<path d="M6710 4196 c0 -2 8 -10 18 -17 15 -13 16 -12 3 4 -13 16 -21 21 -21
13z"/>
<path d="M470 4182 c0 -5 7 -9 15 -9 8 0 12 4 9 9 -3 4 -9 8 -15 8 -5 0 -9 -4
-9 -8z"/>
<path d="M3798 4183 c7 -3 16 -2 19 1 4 3 -2 6 -13 5 -11 0 -14 -3 -6 -6z"/>
<path d="M1616 4167 c3 -10 9 -15 12 -12 3 3 0 11 -7 18 -10 9 -11 8 -5 -6z"/>
<path d="M4969 4163 c-13 -16 -12 -17 4 -4 9 7 17 15 17 17 0 8 -8 3 -21 -13z"/>
<path d="M3764 4154 c-18 -14 -18 -15 4 -4 12 6 22 13 22 15 0 8 -5 6 -26 -11z"/>
<path d="M5400 4160 c8 -5 20 -10 25 -10 6 0 3 5 -5 10 -8 5 -19 10 -25 10 -5
0 -3 -5 5 -10z"/>
<path d="M1997 4149 c7 -7 15 -10 18 -7 3 3 -2 9 -12 12 -14 6 -15 5 -6 -5z"/>
<path d="M6787 4139 c7 -7 15 -10 18 -7 3 3 -2 9 -12 12 -14 6 -15 5 -6 -5z"/>
<path d="M3694 4119 c0 -12 4 -15 12 -9 6 6 14 7 17 3 4 -3 7 -2 7 4 0 6 -8
13 -18 15 -12 4 -18 -1 -18 -13z"/>
<path d="M401 4116 c-9 -11 -9 -16 1 -22 7 -4 10 -4 6 1 -4 4 -3 14 3 22 6 7
9 13 6 13 -2 0 -10 -6 -16 -14z"/>
<path d="M2080 4120 c-9 -6 -10 -10 -3 -10 6 0 15 5 18 10 8 12 4 12 -15 0z"/>
<path d="M3316 4118 c3 -5 10 -6 15 -3 13 9 11 12 -6 12 -8 0 -12 -4 -9 -9z"/>
<path d="M6757 4115 c-4 -8 -3 -16 1 -19 4 -3 9 4 9 15 2 23 -3 25 -10 4z"/>
<path d="M360 4095 c-7 -8 -16 -13 -20 -10 -10 6 -7 -22 4 -32 4 -4 6 -1 4 7
-2 9 3 14 12 12 8 -2 12 0 8 4 -4 4 -3 13 3 21 6 7 9 13 6 13 -2 0 -10 -7 -17
-15z"/>
<path d="M5390 4103 c0 -5 5 -15 10 -23 7 -12 9 -10 7 8 -1 19 -17 33 -17 15z"/>
<path d="M2046 4083 c-6 -14 -5 -15 5 -6 7 7 10 15 7 18 -3 3 -9 -2 -12 -12z"/>
<path d="M3673 4087 c0 -8 6 -14 14 -14 9 0 10 4 2 14 -6 7 -12 13 -14 13 -1
0 -2 -6 -2 -13z"/>
<path d="M6806 4085 c-11 -8 -15 -15 -9 -15 6 0 16 7 23 15 16 19 11 19 -14 0z"/>
<path d="M5481 4074 c-44 -18 -55 -85 -21 -122 17 -17 32 -22 75 -22 43 0 58
5 75 22 27 29 26 81 -1 107 -25 23 -90 31 -128 15z m107 -36 c7 -7 12 -21 12
-33 0 -30 -19 -45 -58 -45 -45 0 -72 16 -72 43 0 34 19 47 65 47 23 0 46 -5
53 -12z"/>
<path d="M6835 4081 c-3 -5 -2 -12 3 -15 5 -3 9 1 9 9 0 17 -3 19 -12 6z"/>
<path d="M6915 4080 c3 -5 8 -10 11 -10 2 0 4 5 4 10 0 6 -5 10 -11 10 -5 0
-7 -4 -4 -10z"/>
<path d="M3730 4059 c0 -5 5 -7 10 -4 6 3 10 8 10 11 0 2 -4 4 -10 4 -5 0 -10
-5 -10 -11z"/>
<path d="M6865 4060 c-3 -6 1 -7 9 -4 18 7 21 14 7 14 -6 0 -13 -4 -16 -10z"/>
<path d="M6911 4053 c7 -12 15 -20 18 -17 3 2 -3 12 -13 22 -17 16 -18 16 -5
-5z"/>
<path d="M3691 4053 c-1 -17 16 -25 25 -12 4 7 3 9 -4 5 -5 -3 -13 0 -15 6 -4
9 -6 10 -6 1z"/>
<path d="M1996 4033 c-6 -14 -5 -15 5 -6 7 7 10 15 7 18 -3 3 -9 -2 -12 -12z"/>
<path d="M5345 4040 c-3 -6 1 -7 9 -4 18 7 21 14 7 14 -6 0 -13 -4 -16 -10z"/>
<path d="M3733 4011 c0 -11 5 -18 9 -15 4 3 5 11 1 19 -7 21 -12 19 -10 -4z"/>
<path d="M2016 4007 c3 -10 9 -15 12 -12 3 3 0 11 -7 18 -10 9 -11 8 -5 -6z"/>
<path d="M5330 4010 c-9 -6 -10 -10 -3 -10 6 0 15 5 18 10 8 12 4 12 -15 0z"/>
<path d="M6994 4006 c1 -8 5 -18 8 -22 4 -3 5 1 4 10 -1 8 -5 18 -8 22 -4 3
-5 -1 -4 -10z"/>
<path d="M250 4006 c0 -2 7 -7 16 -10 8 -3 12 -2 9 4 -6 10 -25 14 -25 6z"/>
<path d="M2755 4000 c-3 -5 -1 -10 4 -10 6 0 11 5 11 10 0 6 -2 10 -4 10 -3 0
-8 -4 -11 -10z"/>
<path d="M7026 3982 c-2 -4 4 -8 14 -8 10 0 16 4 14 8 -3 4 -9 8 -14 8 -5 0
-11 -4 -14 -8z"/>
<path d="M2010 3970 c-9 -6 -10 -10 -3 -10 6 0 15 5 18 10 8 12 4 12 -15 0z"/>
<path d="M95 3940 c-3 -5 -1 -10 4 -10 6 0 11 5 11 10 0 6 -2 10 -4 10 -3 0
-8 -4 -11 -10z"/>
<path d="M1980 3946 c0 -2 9 -6 20 -9 11 -3 18 -1 14 4 -5 9 -34 13 -34 5z"/>
<path d="M2776 3938 c3 -5 10 -6 15 -3 13 9 11 12 -6 12 -8 0 -12 -4 -9 -9z"/>
<path d="M3707 3939 c7 -7 15 -10 18 -7 3 3 -2 9 -12 12 -14 6 -15 5 -6 -5z"/>
<path d="M7087 3939 c7 -7 15 -10 18 -7 3 3 -2 9 -12 12 -14 6 -15 5 -6 -5z"/>
<path d="M5337 3921 c-4 -17 -3 -21 5 -13 5 5 8 16 6 23 -3 8 -7 3 -11 -10z"/>
<path d="M3673 3893 c0 -9 4 -10 14 -2 7 6 13 12 13 14 0 1 -6 2 -13 2 -8 0
-14 -6 -14 -14z"/>
<path d="M2000 3886 c0 -2 8 -10 18 -17 15 -13 16 -12 3 4 -13 16 -21 21 -21
13z"/>
<path d="M3696 3873 c-6 -14 -5 -15 5 -6 7 7 10 15 7 18 -3 3 -9 -2 -12 -12z"/>
<path d="M5498 3882 c-43 -2 -58 -7 -58 -17 0 -12 16 -15 68 -16 l67 -1 -50
-17 c-67 -24 -73 -52 -15 -71 57 -19 50 -31 -15 -27 -47 3 -55 1 -53 -12 3
-13 20 -16 96 -18 92 -2 92 -2 92 22 0 14 -4 25 -10 25 -5 0 -35 10 -67 22
l-58 22 50 16 c75 25 85 31 85 50 0 21 -38 27 -132 22z"/>
<path d="M2813 3856 c-3 -6 -3 -8 2 -4 4 4 13 3 20 -2 8 -7 12 -5 12 3 0 16
-25 18 -34 3z"/>
<path d="M1996 3847 c3 -10 9 -15 12 -12 3 3 0 11 -7 18 -10 9 -11 8 -5 -6z"/>
<path d="M2864 3848 c3 -15 26 -23 26 -8 0 6 -4 9 -9 6 -5 -4 -12 -1 -14 4 -3
6 -4 5 -3 -2z"/>
<path d="M3675 3840 c-3 -5 -1 -10 4 -10 6 0 11 5 11 10 0 6 -2 10 -4 10 -3 0
-8 -4 -11 -10z"/>
<path d="M5325 3819 c-4 -6 -5 -12 -2 -15 2 -3 7 2 10 11 7 17 1 20 -8 4z"/>
<path d="M5356 3818 c3 -5 10 -6 15 -3 13 9 11 12 -6 12 -8 0 -12 -4 -9 -9z"/>
<path d="M2895 3799 c-4 -6 -4 -13 -1 -16 3 -4 6 -1 6 6 0 7 5 9 12 5 7 -4 8
-3 4 4 -9 15 -13 15 -21 1z"/>
<path d="M1990 3790 c-11 -7 -11 -10 -2 -10 8 0 10 -5 6 -12 -4 -7 -3 -9 1 -5
7 6 17 37 12 37 -1 0 -9 -5 -17 -10z"/>
<path d="M2924 3779 c-3 -6 0 -17 8 -25 13 -13 15 -13 15 0 0 8 -5 12 -10 9
-6 -4 -8 0 -4 10 7 19 2 23 -9 6z"/>
<path d="M2962 3738 c-17 -17 -15 -25 6 -30 11 -3 19 0 19 7 0 8 -7 11 -16 7
-14 -5 -14 -3 -2 11 15 20 11 23 -7 5z"/>
<path d="M5350 3743 c0 -5 5 -15 10 -23 7 -12 9 -10 7 8 -1 19 -17 33 -17 15z"/>
<path d="M3030 3730 c0 -6 -6 -8 -12 -4 -7 4 -9 3 -5 -1 10 -12 37 -15 37 -5
0 5 -4 12 -10 15 -5 3 -10 1 -10 -5z"/>
<path d="M3686 3719 c4 -8 30 -6 38 2 3 3 -5 5 -19 5 -13 0 -22 -3 -19 -7z"/>
<path d="M1988 3696 c12 -23 39 -30 39 -10 0 10 -4 11 -10 5 -7 -7 -15 -5 -24
7 -13 16 -14 15 -5 -2z"/>
<path d="M3325 3699 c-4 -6 -5 -12 -2 -15 2 -3 7 2 10 11 7 17 1 20 -8 4z"/>
<path d="M3673 3695 c0 -8 4 -12 9 -9 5 3 6 10 3 15 -9 13 -12 11 -12 -6z"/>
<path d="M2996 3673 c-6 -14 -5 -15 5 -6 7 7 10 15 7 18 -3 3 -9 -2 -12 -12z"/>
<path d="M3051 3673 c0 -11 3 -13 6 -5 2 6 10 9 15 6 7 -4 8 -2 4 4 -11 18
-26 14 -25 -5z"/>
<path d="M3695 3679 c-4 -6 -5 -12 -2 -15 2 -3 7 2 10 11 7 17 1 20 -8 4z"/>
<path d="M5350 3661 c0 -5 8 -15 18 -22 15 -12 16 -12 5 2 -7 9 -10 19 -6 22
3 4 1 7 -5 7 -7 0 -12 -4 -12 -9z"/>
<path d="M3693 3634 c0 -9 4 -11 12 -4 7 5 14 9 16 7 2 -1 3 0 1 2 -7 11 -29
7 -29 -5z"/>
<path d="M5440 3595 c0 -42 3 -55 15 -55 11 0 15 11 15 40 0 36 3 40 25 40 22
0 25 -4 25 -35 0 -24 5 -35 15 -35 10 0 15 11 15 35 0 31 3 35 25 35 23 0 25
-4 25 -40 0 -29 4 -40 15 -40 12 0 15 13 15 55 l0 55 -95 0 -95 0 0 -55z"/>
<path d="M1999 3638 c-5 -18 -6 -38 -1 -34 7 8 12 36 6 36 -2 0 -4 -1 -5 -2z"/>
<path d="M3075 3601 c-3 -5 -2 -12 3 -15 5 -3 9 1 9 9 0 17 -3 19 -12 6z"/>
<path d="M3130 3600 c0 -5 5 -10 10 -10 6 0 10 5 10 10 0 6 -4 10 -10 10 -5 0
-10 -4 -10 -10z"/>
<path d="M3188 3583 c6 -2 18 -2 25 0 6 3 1 5 -13 5 -14 0 -19 -2 -12 -5z"/>
<path d="M3159 3568 c-6 -21 -5 -38 1 -38 5 0 8 9 7 20 -1 17 -5 26 -8 18z"/>
<path d="M3190 3566 c0 -2 7 -7 16 -10 8 -3 12 -2 9 4 -6 10 -25 14 -25 6z"/>
<path d="M5346 3559 c2 -4 13 -7 24 -6 23 2 17 10 -10 12 -10 1 -17 -2 -14 -6z"/>
<path d="M1990 3550 c-9 -6 -10 -10 -3 -10 6 0 15 5 18 10 8 12 4 12 -15 0z"/>
<path d="M3336 3537 c3 -10 9 -15 12 -12 3 3 0 11 -7 18 -10 9 -11 8 -5 -6z"/>
<path d="M3313 3525 c0 -8 4 -12 9 -9 5 3 6 10 3 15 -9 13 -12 11 -12 -6z"/>
<path d="M5348 3533 c7 -3 16 -2 19 1 4 3 -2 6 -13 5 -11 0 -14 -3 -6 -6z"/>
<path d="M1976 3518 c3 -5 10 -6 15 -3 13 9 11 12 -6 12 -8 0 -12 -4 -9 -9z"/>
<path d="M3291 3514 c0 -11 3 -14 6 -6 3 7 2 16 -1 19 -3 4 -6 -2 -5 -13z"/>
<path d="M1996 3493 c-6 -14 -5 -15 5 -6 7 7 10 15 7 18 -3 3 -9 -2 -12 -12z"/>
<path d="M5353 3491 c10 -12 9 -14 -4 -9 -9 4 -16 1 -16 -7 0 -10 5 -11 16 -5
9 4 19 7 23 7 3 -1 10 2 15 6 4 5 1 7 -7 5 -8 -1 -14 2 -13 8 1 6 -5 11 -12
11 -12 0 -12 -3 -2 -16z"/>
<path d="M3248 3492 c-17 -7 -17 -8 0 -18 15 -10 18 -8 18 7 0 11 0 19 -1 18
0 0 -8 -4 -17 -7z"/>
<path d="M3666 3456 c5 -12 4 -17 -3 -13 -5 3 -10 -1 -10 -9 0 -13 2 -13 16 0
12 13 13 18 2 28 -10 11 -11 9 -5 -6z"/>
<path d="M2001 3416 c-9 -10 -9 -16 -1 -21 6 -4 14 -4 17 -1 4 3 1 6 -7 6 -10
0 -10 3 0 15 7 8 10 15 7 15 -2 0 -10 -6 -16 -14z"/>
<path d="M1986 3377 c3 -10 9 -15 12 -12 3 3 0 11 -7 18 -10 9 -11 8 -5 -6z"/>
<path d="M2019 3378 c-5 -18 -6 -38 -1 -34 7 8 12 36 6 36 -2 0 -4 -1 -5 -2z"/>
<path d="M5449 3359 c-13 -24 -6 -83 12 -105 14 -17 53 -18 66 -1 6 6 16 29
23 50 17 52 45 47 46 -8 1 -59 3 -62 19 -35 30 52 10 110 -37 110 -21 0 -29
-9 -46 -50 -12 -27 -25 -50 -30 -50 -21 0 -34 31 -28 64 8 40 -8 56 -25 25z"/>
<path d="M5350 3341 c0 -5 8 -15 18 -22 15 -12 16 -12 5 2 -7 9 -10 19 -6 22
3 4 1 7 -5 7 -7 0 -12 -4 -12 -9z"/>
<path d="M1985 3320 c-3 -6 1 -7 9 -4 18 7 21 14 7 14 -6 0 -13 -4 -16 -10z"/>
<path d="M5346 3239 c2 -4 13 -7 24 -6 23 2 17 10 -10 12 -10 1 -17 -2 -14 -6z"/>
<path d="M5348 3213 c7 -3 16 -2 19 1 4 3 -2 6 -13 5 -11 0 -14 -3 -6 -6z"/>
<path d="M5589 3216 c-2 -2 -22 -6 -44 -9 -93 -14 -105 -18 -105 -42 0 -18 7
-25 30 -29 17 -3 45 -9 63 -13 17 -4 35 -6 40 -5 4 1 7 -2 7 -6 0 -5 -31 -15
-70 -22 -63 -12 -70 -16 -70 -37 0 -12 1 -23 3 -23 1 0 40 -7 87 -15 104 -18
100 -18 100 0 0 8 -3 16 -7 16 -5 1 -19 3 -33 5 -14 1 -36 5 -50 8 -14 2 -34
5 -45 6 -11 1 14 10 55 19 68 16 75 19 75 42 0 13 -4 24 -10 25 -35 2 -113 17
-124 23 -8 5 12 11 49 15 75 9 90 14 90 32 0 13 -30 20 -41 10z"/>
<path d="M2004 3198 c-3 -4 5 -5 17 -3 30 6 36 14 9 12 -12 -1 -24 -5 -26 -9z"/>
<path d="M3667 3199 c7 -9 10 -19 6 -22 -3 -4 -1 -7 5 -7 17 0 15 16 -5 31
-16 12 -17 12 -6 -2z"/>
<path d="M2675 3176 c-74 -32 -160 -157 -204 -296 -51 -162 -71 -414 -43 -549
7 -36 10 -71 8 -78 -3 -8 -1 -11 4 -8 8 5 13 -15 9 -41 0 -4 4 -10 9 -13 6 -3
12 -15 14 -26 1 -11 6 -22 10 -25 3 -3 8 -12 10 -20 2 -8 9 -21 16 -28 10 -11
10 -17 1 -28 -9 -12 -9 -13 3 -9 9 4 21 -3 30 -17 9 -13 26 -33 37 -45 12 -13
17 -23 11 -23 -5 0 -10 -4 -10 -9 0 -5 8 -8 18 -7 12 1 16 -6 15 -24 -1 -14 1
-19 3 -12 8 18 27 15 20 -4 -3 -9 -2 -12 5 -9 6 4 32 -11 59 -34 27 -23 53
-41 58 -41 5 0 15 -7 22 -15 6 -8 38 -27 71 -42 55 -26 66 -40 60 -75 0 -5 4
-8 9 -8 6 0 8 11 4 27 l-7 27 37 -22 c20 -12 34 -17 30 -11 -4 7 1 7 16 -1 24
-13 66 -23 93 -22 9 0 17 -2 17 -6 0 -4 15 -8 33 -8 17 -1 50 -2 72 -4 67 -4
75 -1 75 21 0 19 2 20 18 8 15 -13 16 -12 4 3 -9 10 -12 34 -9 63 4 53 7 51
-82 59 -140 12 -305 67 -408 136 -62 42 -176 157 -168 170 4 6 3 10 -2 9 -20
-3 -25 2 -13 16 11 13 10 14 -2 10 -17 -7 -63 69 -54 91 3 8 2 13 -3 10 -5 -3
-14 8 -20 24 -5 17 -7 30 -3 30 4 0 1 4 -7 9 -16 11 -5 34 12 25 7 -4 8 -3 4
2 -5 5 -13 9 -18 9 -5 0 -8 2 -7 5 1 3 -4 14 -10 25 -16 31 -26 165 -12 165 6
0 8 -6 4 -12 -4 -7 -3 -9 1 -5 15 13 14 36 -1 30 -8 -3 -14 1 -14 9 0 18 41
18 63 0 12 -11 17 -10 23 0 4 7 4 10 -1 6 -4 -4 -15 -2 -23 5 -8 6 -25 12 -36
12 -16 0 -21 6 -19 25 1 14 3 39 4 55 1 17 4 35 8 40 6 11 7 18 9 58 1 19 6
26 14 21 7 -4 8 -3 4 4 -8 14 44 163 55 156 4 -2 6 4 5 13 -1 12 6 18 21 18
12 0 25 3 29 7 3 4 -3 6 -15 3 -29 -5 -26 6 10 41 40 38 51 59 53 105 1 22 2
39 2 39 -1 -1 -14 -7 -31 -14z"/>
<path d="M5325 3179 c-4 -6 -5 -12 -2 -15 2 -3 7 2 10 11 7 17 1 20 -8 4z"/>
<path d="M5356 3178 c3 -5 10 -6 15 -3 13 9 11 12 -6 12 -8 0 -12 -4 -9 -9z"/>
<path d="M2023 3162 c10 -10 14 -22 10 -27 -5 -4 -2 -5 5 -1 11 6 10 12 -4 27
-9 10 -19 19 -22 19 -3 0 2 -8 11 -18z"/>
<path d="M1975 3150 c-4 -6 1 -7 11 -3 10 4 15 2 11 -4 -3 -5 0 -10 8 -10 11
0 12 4 4 14 -14 15 -26 17 -34 3z"/>
<path d="M3667 3119 c7 -9 10 -19 6 -22 -3 -4 -1 -7 5 -7 17 0 15 16 -5 31
-16 12 -17 12 -6 -2z"/>
<path d="M3755 3120 c-2 -3 5 -7 16 -7 10 -1 19 2 19 6 0 9 -29 10 -35 1z"/>
<path d="M5350 3103 c0 -5 5 -15 10 -23 7 -12 9 -10 7 8 -1 19 -17 33 -17 15z"/>
<path d="M2011 3084 c0 -11 3 -14 6 -6 3 7 2 16 -1 19 -3 4 -6 -2 -5 -13z"/>
<path d="M2035 3080 c-3 -5 -1 -10 4 -10 6 0 11 5 11 10 0 6 -2 10 -4 10 -3 0
-8 -4 -11 -10z"/>
<path d="M2731 3074 c0 -11 3 -14 6 -6 3 7 2 16 -1 19 -3 4 -6 -2 -5 -13z"/>
<path d="M3794 3079 c-4 -7 -3 -9 4 -5 5 3 13 0 15 -6 4 -9 6 -10 6 -1 1 17
-16 25 -25 12z"/>
<path d="M3679 3078 c-5 -18 -6 -38 -1 -34 7 8 12 36 6 36 -2 0 -4 -1 -5 -2z"/>
<path d="M2759 3053 c-13 -16 -12 -17 4 -4 16 13 21 21 13 21 -2 0 -10 -8 -17
-17z"/>
<path d="M3756 3062 c-3 -5 1 -9 9 -9 8 0 12 4 9 9 -3 4 -7 8 -9 8 -2 0 -6 -4
-9 -8z"/>
<path d="M2013 3045 c0 -8 4 -15 9 -15 4 0 8 4 8 9 0 6 -4 12 -8 15 -5 3 -9
-1 -9 -9z"/>
<path d="M2695 3050 c-4 -6 -10 -8 -15 -5 -4 3 -14 -3 -21 -13 -12 -15 -12
-16 1 -6 8 6 22 10 31 9 9 -2 16 4 16 11 0 17 -4 18 -12 4z"/>
<path d="M3835 3051 c-3 -6 5 -15 17 -21 21 -10 21 -10 6 3 -10 8 -15 17 -11
20 3 4 4 7 0 7 -3 0 -8 -4 -12 -9z"/>
<path d="M5350 3021 c0 -5 8 -15 18 -22 15 -12 16 -12 5 2 -7 9 -10 19 -6 22
3 4 1 7 -5 7 -7 0 -12 -4 -12 -9z"/>
<path d="M2678 3013 c7 -3 16 -2 19 1 4 3 -2 6 -13 5 -11 0 -14 -3 -6 -6z"/>
<path d="M3880 2991 c0 -6 4 -13 10 -16 6 -3 7 1 4 9 -7 18 -14 21 -14 7z"/>
<path d="M2617 2961 c-3 -13 -1 -18 9 -14 7 2 10 11 7 19 -7 19 -10 18 -16 -5z"/>
<path d="M5473 2962 c-33 -3 -33 -4 -33 -58 0 -41 4 -54 15 -54 11 0 15 11 15
40 0 36 3 40 25 40 22 0 25 -4 25 -35 0 -24 5 -35 15 -35 10 0 15 11 15 35 0
31 3 35 25 35 23 0 25 -4 25 -40 0 -29 4 -40 15 -40 11 0 15 13 15 54 l0 54
-62 4 c-35 1 -78 2 -95 0z"/>
<path d="M3916 2944 c-4 -9 -4 -19 -1 -22 3 -3 5 0 5 7 0 7 4 9 10 6 6 -3 7 1
4 9 -8 20 -10 20 -18 0z"/>
<path d="M2593 2918 c3 -9 1 -19 -6 -22 -9 -3 -9 -5 0 -5 18 -1 23 13 11 29
-8 12 -9 12 -5 -2z"/>
<path d="M5346 2919 c2 -4 13 -7 24 -6 23 2 17 10 -10 12 -10 1 -17 -2 -14 -6z"/>
<path d="M2635 2890 c-4 -6 -10 -8 -15 -5 -4 3 -14 -3 -21 -13 -12 -15 -12
-15 1 -5 8 6 20 12 25 13 18 3 41 19 28 20 -6 0 -15 -5 -18 -10z"/>
<path d="M5348 2893 c7 -3 16 -2 19 1 4 3 -2 6 -13 5 -11 0 -14 -3 -6 -6z"/>
<path d="M2560 2851 c-7 -15 -7 -19 5 -17 8 1 18 6 22 11 5 4 2 5 -6 0 -11 -6
-13 -4 -8 8 9 23 0 21 -13 -2z"/>
<path d="M2639 2868 c-7 -23 -5 -37 4 -35 7 1 11 -4 9 -11 -1 -8 2 -11 8 -7 8
5 6 13 -4 24 -9 10 -13 21 -9 24 3 4 3 7 0 7 -4 0 -7 -1 -8 -2z"/>
<path d="M2210 2842 c0 -4 9 -8 20 -9 11 -1 20 2 20 5 0 4 -9 8 -20 9 -11 1
-20 -2 -20 -5z"/>
<path d="M2747 2831 c-3 -13 0 -18 7 -15 7 3 13 11 13 19 0 22 -14 18 -20 -4z"/>
<path d="M2806 2842 c-3 -5 1 -9 9 -9 8 0 15 4 15 9 0 4 -4 8 -9 8 -6 0 -12
-4 -15 -8z"/>
<path d="M2870 2838 c0 -4 4 -8 9 -8 6 0 12 4 15 8 3 5 -1 9 -9 9 -8 0 -15 -4
-15 -9z"/>
<path d="M2987 2831 c-3 -13 0 -18 7 -15 7 3 13 11 13 19 0 22 -14 18 -20 -4z"/>
<path d="M3144 2838 c9 -5 23 -5 32 0 12 6 7 9 -16 9 -23 0 -28 -3 -16 -9z"/>
<path d="M3210 2846 c0 -2 7 -7 16 -10 8 -3 12 -2 9 4 -6 10 -25 14 -25 6z"/>
<path d="M3290 2846 c0 -2 7 -7 16 -10 8 -3 12 -2 9 4 -6 10 -25 14 -25 6z"/>
<path d="M3744 2838 c-4 -7 -4 -10 1 -6 4 4 16 3 26 -3 11 -5 19 -7 19 -5 0 3
-9 10 -19 16 -15 7 -22 7 -27 -2z"/>
<path d="M3823 2834 c-17 -14 -17 -15 2 -6 11 5 26 7 33 5 17 -6 15 4 -2 10
-8 3 -22 -1 -33 -9z"/>
<path d="M3905 2839 c-4 -6 -5 -12 -2 -15 2 -3 7 2 10 11 7 17 1 20 -8 4z"/>
<path d="M4507 2831 c-3 -13 0 -18 7 -15 7 3 13 11 13 19 0 22 -14 18 -20 -4z"/>
<path d="M4566 2842 c-3 -5 1 -9 9 -9 8 0 15 4 15 9 0 4 -4 8 -9 8 -6 0 -12
-4 -15 -8z"/>
<path d="M4630 2838 c0 -4 4 -8 9 -8 6 0 12 4 15 8 3 5 -1 9 -9 9 -8 0 -15 -4
-15 -9z"/>
<path d="M4747 2831 c-3 -13 0 -18 7 -15 7 3 13 11 13 19 0 22 -14 18 -20 -4z"/>
<path d="M4824 2838 c9 -5 23 -5 32 0 12 6 7 9 -16 9 -23 0 -28 -3 -16 -9z"/>
<path d="M5331 2834 c0 -11 3 -14 6 -6 3 7 2 16 -1 19 -3 4 -6 -2 -5 -13z"/>
<path d="M2068 2811 c4 -10 1 -12 -8 -6 -8 5 -11 4 -6 -3 4 -6 13 -9 21 -6 8
4 13 10 10 14 -3 5 1 10 7 13 7 3 3 4 -8 4 -15 -1 -20 -6 -16 -16z"/>
<path d="M2191 2823 c3 -19 -2 -27 -10 -15 -7 11 -9 10 -14 -3 -4 -9 -3 -14 2
-10 5 3 11 1 13 -5 2 -6 9 -1 15 9 8 13 9 22 3 26 -6 4 -10 3 -9 -2z"/>
<path d="M2256 2813 c-6 -14 -5 -15 5 -6 7 7 10 15 7 18 -3 3 -9 -2 -12 -12z"/>
<path d="M2710 2821 c0 -6 4 -13 10 -16 6 -3 7 1 4 9 -7 18 -14 21 -14 7z"/>
<path d="M2835 2820 c-3 -5 -4 -10 0 -10 3 0 1 -8 -4 -18 -7 -14 -6 -19 4 -19
8 0 11 7 7 16 -5 13 -3 14 9 4 12 -10 15 -8 15 6 0 12 -5 17 -15 13 -9 -3 -12
-1 -7 6 4 7 5 12 2 12 -3 0 -8 -4 -11 -10z"/>
<path d="M4595 2820 c-3 -5 -4 -10 0 -10 3 0 1 -8 -4 -18 -7 -14 -6 -19 4 -19
8 0 11 7 7 16 -5 13 -3 14 9 4 12 -10 15 -8 15 6 0 12 -5 17 -15 13 -9 -3 -12
-1 -7 6 4 7 5 12 2 12 -3 0 -8 -4 -11 -10z"/>
<path d="M5370 2820 c0 -5 5 -10 11 -10 5 0 7 5 4 10 -3 6 -8 10 -11 10 -2 0
-4 -4 -4 -10z"/>
<path d="M3103 2802 c10 -10 14 -22 10 -25 -3 -4 -1 -7 5 -7 17 0 15 16 -4 34
-22 22 -31 20 -11 -2z"/>
<path d="M3206 2805 c-11 -8 -16 -15 -10 -15 5 0 2 -5 -6 -10 -12 -7 -10 -9 7
-8 14 2 19 7 15 17 -3 8 -1 12 5 8 5 -3 10 0 10 8 0 8 -1 15 -1 15 -1 0 -10
-7 -20 -15z"/>
<path d="M3313 2805 c0 -8 4 -12 9 -9 5 3 6 10 3 15 -9 13 -12 11 -12 -6z"/>
<path d="M3673 2805 c0 -8 4 -12 9 -9 5 3 6 10 3 15 -9 13 -12 11 -12 -6z"/>
<path d="M3967 2802 c-20 -22 -21 -32 -5 -32 6 0 8 3 5 7 -4 3 0 15 10 25 9
10 14 18 11 18 -3 0 -12 -8 -21 -18z"/>
<path d="M4863 2802 c9 -10 15 -21 12 -24 -3 -3 3 -11 12 -19 16 -12 17 -12 6
1 -11 15 -13 20 -13 39 0 5 -8 12 -17 15 -16 6 -16 6 0 -12z"/>
<path d="M4895 2811 c-3 -5 -2 -12 3 -15 5 -3 9 1 9 9 0 17 -3 19 -12 6z"/>
<path d="M1990 2799 c0 -5 5 -7 10 -4 6 3 10 8 10 11 0 2 -4 4 -10 4 -5 0 -10
-5 -10 -11z"/>
<path d="M2276 2802 c-3 -5 1 -9 9 -9 8 0 12 4 9 9 -3 4 -7 8 -9 8 -2 0 -6 -4
-9 -8z"/>
<path d="M2587 2791 c-4 -17 -3 -21 5 -13 5 5 8 16 6 23 -3 8 -7 3 -11 -10z"/>
<path d="M2610 2801 c0 -6 4 -13 10 -16 6 -3 7 1 4 9 -7 18 -14 21 -14 7z"/>
<path d="M2967 2799 c7 -7 15 -10 18 -7 3 3 -2 9 -12 12 -14 6 -15 5 -6 -5z"/>
<path d="M3035 2800 c3 -5 0 -10 -7 -12 -7 -3 -3 -7 9 -10 17 -4 20 -2 16 10
-5 11 -3 13 8 7 8 -5 11 -4 6 0 -10 12 -39 16 -32 5z"/>
<path d="M3780 2795 c-11 -13 -10 -14 5 -9 14 6 16 4 10 -7 -5 -8 -4 -11 0 -6
12 10 15 37 5 37 -4 0 -13 -7 -20 -15z"/>
<path d="M3886 2798 c3 -5 10 -6 15 -3 13 9 11 12 -6 12 -8 0 -12 -4 -9 -9z"/>
<path d="M4456 2798 c3 -4 11 -5 19 -1 21 7 19 12 -4 10 -11 0 -18 -5 -15 -9z"/>
<path d="M4727 2799 c7 -7 15 -10 18 -7 3 3 -2 9 -12 12 -14 6 -15 5 -6 -5z"/>
<path d="M4795 2800 c3 -5 0 -10 -7 -12 -7 -3 -3 -7 9 -10 17 -4 20 -2 16 10
-5 11 -3 13 8 7 8 -5 11 -4 6 0 -10 12 -39 16 -32 5z"/>
<path d="M5478 2802 l-38 -3 0 -55 c0 -41 4 -54 15 -54 11 0 15 11 15 40 0 36
3 40 25 40 22 0 25 -4 25 -35 0 -24 5 -35 15 -35 10 0 15 11 15 35 0 31 3 35
25 35 23 0 25 -4 25 -40 0 -29 4 -40 15 -40 12 0 15 13 15 55 l0 55 -37 1
c-21 0 -47 1 -58 2 -11 1 -37 1 -57 -1z"/>
<path d="M2033 2778 c2 -7 1 -20 -4 -28 -5 -11 -2 -16 11 -16 12 0 16 4 11 11
-5 5 -7 18 -6 28 2 9 -1 17 -7 17 -5 0 -8 -6 -5 -12z"/>
<path d="M2115 2773 c1 -10 -1 -23 -6 -28 -5 -7 -1 -11 11 -11 13 0 16 5 11
16 -5 8 -6 21 -4 28 3 6 0 12 -5 12 -6 0 -9 -8 -7 -17z"/>
<path d="M2747 2769 c6 -22 20 -26 20 -4 0 8 -6 16 -13 19 -7 3 -10 -2 -7 -15z"/>
<path d="M4507 2769 c6 -22 20 -26 20 -4 0 8 -6 16 -13 19 -7 3 -10 -2 -7 -15z"/>
<path d="M4988 2768 c2 -10 9 -18 15 -18 6 0 7 3 4 7 -4 3 -3 11 3 17 6 8 3
12 -9 12 -12 0 -17 -6 -13 -18z"/>
<path d="M2213 2765 c0 -7 7 -11 15 -7 9 3 13 1 9 -5 -4 -6 0 -13 8 -16 10 -4
12 -1 8 10 -4 10 -2 14 4 10 5 -3 10 1 10 9 0 10 -4 11 -10 5 -6 -6 -17 -7
-27 -1 -12 6 -17 5 -17 -5z"/>
<path d="M2290 2776 c0 -2 8 -10 18 -17 15 -13 16 -12 3 4 -13 16 -21 21 -21
13z"/>
<path d="M3857 2761 c-4 -17 -3 -21 5 -13 5 5 8 16 6 23 -3 8 -7 3 -11 -10z"/>
<path d="M3891 2764 c0 -11 3 -14 6 -6 3 7 2 16 -1 19 -3 4 -6 -2 -5 -13z"/>
<path d="M4341 2773 c-1 -6 6 -19 15 -27 19 -19 31 -21 15 -3 -6 8 -7 18 -3
22 4 5 2 5 -5 2 -6 -4 -14 -1 -16 5 -4 9 -6 9 -6 1z"/>
<path d="M4415 2770 c-4 -6 -10 -8 -15 -5 -4 3 -7 -2 -6 -10 1 -8 4 -16 7 -17
2 -2 3 -1 1 1 -1 2 5 13 15 23 9 10 13 18 10 18 -3 0 -9 -5 -12 -10z"/>
<path d="M2555 2760 c-3 -5 -3 -10 2 -10 4 0 1 -5 -7 -11 -12 -8 -12 -10 -1
-7 8 2 15 12 17 21 3 19 -2 22 -11 7z"/>
<path d="M2600 2765 c0 -2 6 -8 13 -14 10 -8 14 -7 14 2 0 8 -6 14 -14 14 -7
0 -13 -1 -13 -2z"/>
<path d="M2873 2752 c0 -12 5 -22 9 -22 11 0 10 12 -2 30 -7 12 -9 10 -7 -8z"/>
<path d="M2916 2758 c3 -4 11 -5 19 -1 21 7 19 12 -4 10 -11 0 -18 -5 -15 -9z"/>
<path d="M3063 2756 c-3 -6 -3 -8 2 -4 4 4 16 3 26 -3 14 -7 17 -6 13 4 -6 16
-32 18 -41 3z"/>
<path d="M3223 2756 c-3 -6 -3 -8 2 -4 4 4 16 3 26 -3 14 -7 17 -6 13 4 -6 16
-32 18 -41 3z"/>
<path d="M3690 2765 c0 -7 30 -13 34 -7 3 4 -4 9 -15 9 -10 1 -19 0 -19 -2z"/>
<path d="M3762 2758 c-15 -15 -15 -28 0 -28 6 0 8 3 5 7 -4 3 -2 12 4 20 14
16 7 17 -9 1z"/>
<path d="M3914 2756 c1 -8 5 -18 8 -22 4 -3 5 1 4 10 -1 8 -5 18 -8 22 -4 3
-5 -1 -4 -10z"/>
<path d="M4431 2752 c-7 -14 -6 -18 9 -18 13 0 16 4 10 12 -6 6 -7 14 -3 17 3
4 3 7 0 7 -3 0 -11 -8 -16 -18z"/>
<path d="M4633 2752 c0 -12 5 -22 9 -22 11 0 10 12 -2 30 -7 12 -9 10 -7 -8z"/>
<path d="M4676 2758 c3 -4 11 -5 19 -1 21 7 19 12 -4 10 -11 0 -18 -5 -15 -9z"/>
<path d="M4823 2756 c-3 -6 -3 -8 2 -4 4 4 16 3 26 -3 14 -7 17 -6 13 4 -6 16
-32 18 -41 3z"/>
<path d="M3947 2747 c-3 -7 3 -13 14 -13 13 0 15 3 7 13 -6 7 -12 13 -13 13
-2 0 -5 -6 -8 -13z"/>
<path d="M2798 2743 c7 -3 16 -2 19 1 4 3 -2 6 -13 5 -11 0 -14 -3 -6 -6z"/>
<path d="M2830 2746 c0 -2 7 -7 16 -10 8 -3 12 -2 9 4 -6 10 -25 14 -25 6z"/>
<path d="M2949 2737 c6 -8 7 -18 3 -22 -4 -5 -1 -5 6 -1 10 6 10 11 1 22 -6 8
-14 14 -16 14 -3 0 0 -6 6 -13z"/>
<path d="M3160 2735 c-7 -9 -11 -17 -9 -20 3 -2 10 5 17 15 14 24 10 26 -8 5z"/>
<path d="M3677 2737 c4 -6 0 -8 -9 -4 -12 4 -14 1 -10 -16 3 -12 7 -16 10 -9
2 7 9 9 15 5 7 -3 9 -3 5 2 -4 4 -3 13 2 20 7 8 5 12 -5 12 -8 0 -11 -5 -8
-10z"/>
<path d="M3826 2737 c3 -10 9 -15 12 -12 3 3 0 11 -7 18 -10 9 -11 8 -5 -6z"/>
<path d="M4558 2743 c7 -3 16 -2 19 1 4 3 -2 6 -13 5 -11 0 -14 -3 -6 -6z"/>
<path d="M4590 2746 c0 -2 7 -7 16 -10 8 -3 12 -2 9 4 -6 10 -25 14 -25 6z"/>
<path d="M4711 2733 c7 -12 15 -20 18 -17 3 2 -3 12 -13 22 -17 16 -18 16 -5
-5z"/>
<path d="M4918 2743 c7 -3 16 -2 19 1 4 3 -2 6 -13 5 -11 0 -14 -3 -6 -6z"/>
<path d="M4950 2746 c0 -2 7 -7 16 -10 8 -3 12 -2 9 4 -6 10 -25 14 -25 6z"/>
<path d="M3073 2725 c0 -8 4 -12 9 -9 5 3 6 10 3 15 -9 13 -12 11 -12 -6z"/>
<path d="M4833 2725 c0 -8 4 -12 9 -9 5 3 6 10 3 15 -9 13 -12 11 -12 -6z"/>
<path d="M1975 2720 c3 -5 8 -10 11 -10 2 0 4 5 4 10 0 6 -5 10 -11 10 -5 0
-7 -4 -4 -10z"/>
<path d="M2190 2720 c0 -4 7 -7 15 -6 23 3 26 12 5 13 -11 1 -20 -2 -20 -7z"/>
<path d="M3875 2720 c3 -5 8 -10 11 -10 2 0 4 5 4 10 0 6 -5 10 -11 10 -5 0
-7 -4 -4 -10z"/>
<path d="M4746 2718 c3 -5 10 -6 15 -3 13 9 11 12 -6 12 -8 0 -12 -4 -9 -9z"/>
<path d="M2095 2700 c-3 -5 -1 -10 4 -10 6 0 11 5 11 10 0 6 -2 10 -4 10 -3 0
-8 -4 -11 -10z"/>
<path d="M2293 2695 c0 -8 4 -12 9 -9 5 3 6 10 3 15 -9 13 -12 11 -12 -6z"/>
<path d="M2750 2700 c0 -5 5 -10 11 -10 5 0 7 5 4 10 -3 6 -8 10 -11 10 -2 0
-4 -4 -4 -10z"/>
<path d="M2970 2705 c0 -7 30 -13 34 -7 3 4 -4 9 -15 9 -10 1 -19 0 -19 -2z"/>
<path d="M3210 2705 c0 -7 30 -13 34 -7 3 4 -4 9 -15 9 -10 1 -19 0 -19 -2z"/>
<path d="M3855 2701 c-3 -5 -2 -12 3 -15 5 -3 9 1 9 9 0 17 -3 19 -12 6z"/>
<path d="M4550 2699 c0 -5 5 -7 10 -4 6 3 10 8 10 11 0 2 -4 4 -10 4 -5 0 -10
-5 -10 -11z"/>
<path d="M4650 2705 c0 -7 30 -13 34 -7 3 4 -4 9 -15 9 -10 1 -19 0 -19 -2z"/>
<path d="M4890 2705 c0 -7 30 -13 34 -7 3 4 -4 9 -15 9 -10 1 -19 0 -19 -2z"/>
<path d="M5350 2701 c0 -5 8 -15 18 -22 15 -12 16 -12 5 2 -7 9 -10 19 -6 22
3 4 1 7 -5 7 -7 0 -12 -4 -12 -9z"/>
<path d="M2023 2682 c10 -10 14 -22 10 -27 -5 -4 -2 -5 5 -1 11 6 10 12 -4 27
-9 10 -19 19 -22 19 -3 0 2 -8 11 -18z"/>
<path d="M1993 2667 c0 -8 6 -14 14 -14 9 0 10 4 2 14 -6 7 -12 13 -14 13 -1
0 -2 -6 -2 -13z"/>
<path d="M3677 2673 c-10 -9 -9 -23 1 -23 5 0 9 7 9 15 0 17 -1 18 -10 8z"/>
<path d="M5600 2651 c0 -17 -3 -30 -7 -30 -5 1 -41 1 -80 0 -58 -1 -73 -4 -73
-16 0 -12 15 -15 79 -15 79 0 80 0 83 -27 2 -16 8 -27 13 -25 15 3 13 134 -2
140 -9 2 -13 -7 -13 -27z"/>
<path d="M2555 2640 c3 -5 8 -10 11 -10 2 0 4 5 4 10 0 6 -5 10 -11 10 -5 0
-7 -4 -4 -10z"/>
<path d="M3695 2639 c-4 -6 -5 -12 -2 -15 2 -3 7 2 10 11 7 17 1 20 -8 4z"/>
<path d="M2011 2604 c0 -11 3 -14 6 -6 3 7 2 16 -1 19 -3 4 -6 -2 -5 -13z"/>
<path d="M2035 2600 c-3 -5 -1 -10 4 -10 6 0 11 5 11 10 0 6 -2 10 -4 10 -3 0
-8 -4 -11 -10z"/>
<path d="M3691 2594 c0 -11 3 -14 6 -6 3 7 2 16 -1 19 -3 4 -6 -2 -5 -13z"/>
<path d="M5346 2599 c2 -4 13 -7 24 -6 23 2 17 10 -10 12 -10 1 -17 -2 -14 -6z"/>
<path d="M2015 2560 c6 -30 16 -40 12 -12 -2 12 -6 24 -10 28 -3 4 -4 -4 -2
-16z"/>
<path d="M5348 2573 c7 -3 16 -2 19 1 4 3 -2 6 -13 5 -11 0 -14 -3 -6 -6z"/>
<path d="M3675 2562 c3 -3 1 -10 -5 -16 -6 -8 -3 -12 8 -12 10 0 18 8 18 16 0
9 -6 17 -13 17 -7 0 -11 -3 -8 -5z"/>
<path d="M5325 2539 c-4 -6 -5 -12 -2 -15 2 -3 7 2 10 11 7 17 1 20 -8 4z"/>
<path d="M5356 2538 c3 -5 10 -6 15 -3 13 9 11 12 -6 12 -8 0 -12 -4 -9 -9z"/>
<path d="M2533 2525 c0 -8 5 -11 10 -8 6 4 8 0 4 -9 -6 -17 16 -19 30 -3 5 4
2 5 -6 0 -11 -6 -13 -4 -7 11 4 10 4 15 0 11 -4 -4 -12 -2 -19 3 -8 7 -12 5
-12 -5z"/>
<path d="M4416 2507 c3 -10 9 -15 12 -12 3 3 0 11 -7 18 -10 9 -11 8 -5 -6z"/>
<path d="M2019 2503 c0 -5 -2 -16 -4 -26 -2 -11 -1 -16 3 -13 8 8 14 46 7 46
-3 0 -5 -3 -6 -7z"/>
<path d="M3711 2493 c7 -12 15 -20 18 -17 3 2 -3 12 -13 22 -17 16 -18 16 -5
-5z"/>
<path d="M4387 2495 c3 -8 9 -12 14 -9 12 7 11 11 -5 17 -10 4 -13 1 -9 -8z"/>
<path d="M2559 2468 c-5 -18 -6 -38 -1 -34 7 8 12 36 6 36 -2 0 -4 -1 -5 -2z"/>
<path d="M3685 2460 c-3 -6 1 -7 9 -4 18 7 21 14 7 14 -6 0 -13 -4 -16 -10z"/>
<path d="M4398 2463 c7 -3 16 -2 19 1 4 3 -2 6 -13 5 -11 0 -14 -3 -6 -6z"/>
<path d="M5350 2463 c0 -5 5 -15 10 -23 7 -12 9 -10 7 8 -1 19 -17 33 -17 15z"/>
<path d="M2531 2434 c0 -11 3 -14 6 -6 3 7 2 16 -1 19 -3 4 -6 -2 -5 -13z"/>
<path d="M3656 2442 c-3 -5 1 -9 9 -9 8 0 12 4 9 9 -3 4 -7 8 -9 8 -2 0 -6 -4
-9 -8z"/>
<path d="M3696 2433 c-6 -14 -5 -15 5 -6 7 7 10 15 7 18 -3 3 -9 -2 -12 -12z"/>
<path d="M4400 2446 c0 -2 8 -10 18 -17 15 -13 16 -12 3 4 -13 16 -21 21 -21
13z"/>
<path d="M2001 2408 c5 -10 11 -18 12 -18 2 0 3 8 3 18 0 10 -6 19 -13 19 -8
0 -9 -6 -2 -19z"/>
<path d="M4402 2407 c10 -8 14 -18 10 -22 -4 -5 -1 -5 6 -1 17 10 15 14 -10
26 -21 10 -21 10 -6 -3z"/>
<path d="M3677 2398 c-7 -5 0 -6 17 -4 16 3 31 7 33 10 8 8 -37 2 -50 -6z"/>
<path d="M4360 2396 c0 -2 7 -7 16 -10 8 -3 12 -2 9 4 -6 10 -25 14 -25 6z"/>
<path d="M5350 2381 c0 -5 8 -15 18 -22 15 -12 16 -12 5 2 -7 9 -10 19 -6 22
3 4 1 7 -5 7 -7 0 -12 -4 -12 -9z"/>
<path d="M2013 2367 c0 -7 11 -13 23 -13 20 0 25 11 6 11 -4 0 -12 3 -18 7 -6
4 -11 1 -11 -5z"/>
<path d="M4390 2359 c0 -5 5 -7 10 -4 6 3 10 8 10 11 0 2 -4 4 -10 4 -5 0 -10
-5 -10 -11z"/>
<path d="M5440 2345 c0 -11 11 -15 40 -15 l40 0 0 -40 0 -40 -40 0 c-29 0 -40
-4 -40 -15 0 -12 17 -15 95 -15 78 0 95 3 95 15 0 11 -11 15 -40 15 l-40 0 0
40 0 40 40 0 c29 0 40 4 40 15 0 12 -17 15 -95 15 -78 0 -95 -3 -95 -15z"/>
<path d="M4347 2329 c4 -13 8 -18 11 -10 2 7 -1 18 -6 23 -8 8 -9 4 -5 -13z"/>
<path d="M2010 2337 c0 -2 6 -10 14 -16 11 -9 16 -9 22 1 4 7 4 10 -1 6 -4 -4
-14 -3 -22 3 -7 6 -13 9 -13 6z"/>
<path d="M3664 2310 c0 -13 4 -16 10 -10 7 7 7 13 0 20 -6 6 -10 3 -10 -10z"/>
<path d="M4373 2285 c0 -8 7 -11 16 -7 14 5 14 4 1 -14 -14 -19 -14 -19 8 0
12 11 22 21 22 24 0 3 -3 2 -6 -1 -4 -3 -14 -2 -24 3 -12 6 -17 5 -17 -5z"/>
<path d="M3686 2279 c4 -8 30 -6 38 2 3 3 -5 5 -19 5 -13 0 -22 -3 -19 -7z"/>
<path d="M5346 2279 c2 -4 13 -7 24 -6 23 2 17 10 -10 12 -10 1 -17 -2 -14 -6z"/>
<path d="M3670 2263 c5 -2 8 -9 5 -13 -3 -5 -1 -11 4 -14 5 -4 8 2 7 11 -2 9
-8 18 -15 19 -6 1 -7 0 -1 -3z"/>
<path d="M1992 2246 c7 -8 15 -12 17 -11 5 6 -10 25 -20 25 -5 0 -4 -6 3 -14z"/>
<path d="M5348 2253 c7 -3 16 -2 19 1 4 3 -2 6 -13 5 -11 0 -14 -3 -6 -6z"/>
<path d="M3650 2241 c0 -6 4 -13 10 -16 6 -3 7 1 4 9 -7 18 -14 21 -14 7z"/>
<path d="M4350 2246 c0 -2 7 -7 16 -10 8 -3 12 -2 9 4 -6 10 -25 14 -25 6z"/>
<path d="M4395 2240 c-3 -5 -1 -10 4 -10 6 0 11 5 11 10 0 6 -2 10 -4 10 -3 0
-8 -4 -11 -10z"/>
<path d="M2590 2220 c0 -5 5 -10 11 -10 5 0 7 5 4 10 -3 6 -8 10 -11 10 -2 0
-4 -4 -4 -10z"/>
<path d="M4350 2206 c5 -13 6 -26 4 -29 -3 -3 -1 -7 3 -10 5 -3 9 8 8 24 0 16
-5 31 -12 33 -9 4 -10 -1 -3 -18z"/>
<path d="M5353 2211 c10 -12 9 -14 -4 -9 -9 4 -16 1 -16 -7 0 -10 5 -11 16 -5
9 4 19 7 23 7 3 -1 10 2 15 6 4 5 1 7 -7 5 -8 -1 -14 2 -13 8 1 6 -5 11 -12
11 -12 0 -12 -3 -2 -16z"/>
<path d="M2023 2202 c10 -10 14 -22 10 -27 -5 -4 -2 -5 5 -1 11 6 10 12 -4 27
-9 10 -19 19 -22 19 -3 0 2 -8 11 -18z"/>
<path d="M3697 2210 c7 -8 20 -15 29 -16 9 -1 13 1 9 4 -4 4 -10 7 -13 7 -4 0
-14 4 -22 9 -12 7 -13 6 -3 -4z"/>
<path d="M3670 2200 c0 -5 5 -10 11 -10 5 0 7 5 4 10 -3 6 -8 10 -11 10 -2 0
-4 -4 -4 -10z"/>
<path d="M1975 2190 c-4 -6 1 -7 11 -3 10 4 15 2 11 -4 -3 -5 0 -10 8 -10 11
0 12 4 4 14 -14 15 -26 17 -34 3z"/>
<path d="M3693 2159 c-2 -23 3 -25 10 -4 4 8 3 16 -1 19 -4 3 -9 -4 -9 -15z"/>
<path d="M5466 2167 c-9 -7 -20 -31 -23 -52 -7 -61 20 -85 96 -85 52 0 61 3
76 26 21 32 14 92 -12 111 -22 17 -114 17 -137 0z m115 -27 c11 -6 19 -21 19
-35 0 -29 -26 -45 -72 -45 -40 0 -58 15 -58 47 0 38 65 57 111 33z"/>
<path d="M4315 2160 c3 -5 0 -10 -7 -12 -7 -3 -3 -7 9 -10 17 -4 20 -2 16 10
-5 11 -3 13 8 7 8 -5 11 -4 6 0 -10 12 -39 16 -32 5z"/>
<path d="M4370 2139 c0 -5 5 -7 10 -4 6 3 10 8 10 11 0 2 -4 4 -10 4 -5 0 -10
-5 -10 -11z"/>
<path d="M2011 2124 c0 -11 3 -14 6 -6 3 7 2 16 -1 19 -3 4 -6 -2 -5 -13z"/>
<path d="M2035 2120 c-3 -5 -1 -10 4 -10 6 0 11 5 11 10 0 6 -2 10 -4 10 -3 0
-8 -4 -11 -10z"/>
<path d="M3691 2114 c0 -11 3 -14 6 -6 3 7 2 16 -1 19 -3 4 -6 -2 -5 -13z"/>
<path d="M4350 2095 c5 -7 7 -15 3 -18 -3 -4 -1 -7 5 -7 6 0 10 8 9 18 0 10
-7 19 -14 19 -9 0 -10 -4 -3 -12z"/>
<path d="M1976 2083 c-6 -14 -5 -15 5 -6 7 7 10 15 7 18 -3 3 -9 -2 -12 -12z"/>
<path d="M2014 2080 c0 -13 4 -16 10 -10 7 7 7 13 0 20 -6 6 -10 3 -10 -10z"/>
<path d="M3656 2083 c-6 -14 -5 -15 5 -6 7 7 10 15 7 18 -3 3 -9 -2 -12 -12z"/>
<path d="M3693 2073 c0 -9 4 -10 14 -2 7 6 13 12 13 14 0 1 -6 2 -13 2 -8 0
-14 -6 -14 -14z"/>
<path d="M5350 2082 c0 -5 7 -9 15 -9 8 0 12 4 9 9 -3 4 -9 8 -15 8 -5 0 -9
-4 -9 -8z"/>
<path d="M4206 2047 c-16 -12 -16 -14 -3 -14 9 0 18 6 21 14 3 7 4 13 3 13 -2
0 -11 -6 -21 -13z"/>
<path d="M3676 2039 c4 -8 30 -6 38 2 3 3 -5 5 -19 5 -13 0 -22 -3 -19 -7z"/>
<path d="M2507 2019 c7 -7 15 -10 18 -7 3 3 -2 9 -12 12 -14 6 -15 5 -6 -5z"/>
<path d="M4307 2019 c7 -7 15 -10 18 -7 3 3 -2 9 -12 12 -14 6 -15 5 -6 -5z"/>
<path d="M5325 2019 c-4 -6 -5 -12 -2 -15 2 -3 7 2 10 11 7 17 1 20 -8 4z"/>
<path d="M2033 1995 c0 -8 4 -12 9 -9 5 3 6 10 3 15 -9 13 -12 11 -12 -6z"/>
<path d="M2535 2001 c-3 -5 -2 -12 3 -15 5 -3 9 1 9 9 0 17 -3 19 -12 6z"/>
<path d="M4230 2002 c0 -5 7 -9 15 -9 8 0 12 4 9 9 -3 4 -9 8 -15 8 -5 0 -9
-4 -9 -8z"/>
<path d="M1997 1987 c-3 -8 1 -14 8 -14 7 0 11 6 8 14 -3 7 -6 13 -8 13 -2 0
-5 -6 -8 -13z"/>
<path d="M5488 1982 c-34 -2 -48 -7 -48 -18 0 -11 16 -14 68 -15 l67 -1 -50
-17 c-67 -24 -73 -52 -15 -71 60 -20 57 -27 -8 -26 -44 1 -57 -2 -60 -14 -2
-13 12 -16 93 -17 91 -1 95 -1 95 20 0 18 -11 25 -60 41 -33 11 -60 23 -60 27
0 4 26 16 58 26 42 15 58 25 60 40 3 18 -3 21 -45 24 -26 2 -69 3 -95 1z"/>
<path d="M3700 1960 c-9 -6 -10 -10 -3 -10 6 0 15 5 18 10 8 12 4 12 -15 0z"/>
<path d="M4260 1960 c-8 -5 -10 -10 -5 -10 6 0 17 5 25 10 8 5 11 10 5 10 -5
0 -17 -5 -25 -10z"/>
<path d="M1976 1951 c-4 -5 3 -7 14 -4 23 6 26 13 6 13 -8 0 -17 -4 -20 -9z"/>
<path d="M2559 1948 c-5 -16 -4 -46 2 -42 4 2 7 13 6 24 -1 17 -5 26 -8 18z"/>
<path d="M4110 1940 c0 -5 5 -10 10 -10 6 0 10 5 10 10 0 6 -4 10 -10 10 -5 0
-10 -4 -10 -10z"/>
<path d="M5370 1940 c0 -5 5 -10 11 -10 5 0 7 5 4 10 -3 6 -8 10 -11 10 -2 0
-4 -4 -4 -10z"/>
<path d="M3657 1924 c2 -7 11 -10 19 -7 19 7 18 10 -5 16 -13 3 -18 1 -14 -9z"/>
<path d="M4230 1925 c0 -7 30 -13 34 -7 3 4 -4 9 -15 9 -10 1 -19 0 -19 -2z"/>
<path d="M4199 1908 c-7 -23 -4 -35 7 -35 10 0 11 4 3 13 -7 8 -6 14 3 17 10
4 10 6 1 6 -7 1 -13 0 -14 -1z"/>
<path d="M5331 1886 c-9 -10 -8 -15 2 -19 8 -3 13 3 13 14 0 23 0 23 -15 5z"/>
<path d="M1990 1881 c0 -6 4 -12 8 -15 5 -3 9 1 9 9 0 8 -4 15 -9 15 -4 0 -8
-4 -8 -9z"/>
<path d="M2595 1880 c3 -5 8 -10 11 -10 2 0 4 5 4 10 0 6 -5 10 -11 10 -5 0
-7 -4 -4 -10z"/>
<path d="M4061 1874 c0 -11 3 -14 6 -6 3 7 2 16 -1 19 -3 4 -6 -2 -5 -13z"/>
<path d="M2667 1866 c-4 -10 -1 -13 8 -9 8 3 12 9 9 14 -7 12 -11 11 -17 -5z"/>
<path d="M4150 1876 c0 -2 8 -10 18 -17 15 -13 16 -12 3 4 -13 16 -21 21 -21
13z"/>
<path d="M2027 1859 c7 -7 15 -10 18 -7 3 3 -2 9 -12 12 -14 6 -15 5 -6 -5z"/>
<path d="M4113 1850 c-1 -11 2 -20 7 -20 4 0 7 7 6 15 -3 23 -12 26 -13 5z"/>
<path d="M1994 1838 c-4 -7 -4 -10 1 -6 4 4 15 2 24 -5 14 -11 14 -10 2 6 -16
20 -18 21 -27 5z"/>
<path d="M2690 1838 c0 -4 4 -8 9 -8 6 0 12 4 15 8 3 5 -1 9 -9 9 -8 0 -15 -4
-15 -9z"/>
<path d="M3665 1840 c-3 -6 1 -7 9 -4 18 7 21 14 7 14 -6 0 -13 -4 -16 -10z"/>
<path d="M5334 1838 c-3 -5 -3 -12 0 -15 3 -4 6 -1 6 5 0 6 10 9 21 7 12 -3
19 -1 15 2 -11 11 -35 12 -42 1z"/>
<path d="M3985 1820 c-3 -6 1 -7 9 -4 18 7 21 14 7 14 -6 0 -13 -4 -16 -10z"/>
<path d="M4004 1805 c-10 -8 -14 -15 -9 -15 6 0 3 -5 -5 -11 -13 -9 -13 -10 0
-6 8 2 14 10 12 17 -2 7 3 10 11 7 8 -3 14 1 14 9 0 17 1 17 -23 -1z"/>
<path d="M4053 1805 c0 -8 5 -11 10 -8 6 4 8 0 5 -8 -4 -10 1 -15 12 -15 10 0
16 4 13 9 -2 4 1 16 9 25 12 15 11 16 -4 3 -13 -10 -21 -11 -31 -2 -10 8 -14
7 -14 -4z"/>
<path d="M4139 1808 c15 -21 31 -23 31 -6 0 6 -3 8 -7 5 -3 -4 -13 -1 -22 6
-14 11 -14 10 -2 -5z"/>
<path d="M3653 1795 c0 -7 8 -10 19 -7 10 2 18 6 18 7 0 1 -8 5 -18 7 -11 3
-19 0 -19 -7z"/>
<path d="M4113 1785 c0 -8 4 -12 9 -9 5 3 6 10 3 15 -9 13 -12 11 -12 -6z"/>
<path d="M4358 1743 c-93 -122 -250 -404 -235 -420 5 -4 13 1 19 12 17 33 145
155 162 155 28 0 17 -18 -23 -41 -44 -24 -66 -60 -48 -78 26 -26 73 0 101 57
9 17 21 32 25 32 5 0 17 3 26 7 14 5 16 3 8 -13 -5 -10 -8 -25 -7 -31 1 -7 2
-17 3 -23 1 -14 31 -12 58 3 12 7 45 34 73 61 27 26 50 45 50 42 0 -24 -46
-89 -82 -117 -95 -72 -164 -164 -156 -206 7 -35 33 -37 72 -8 34 26 156 213
156 240 0 6 20 23 45 39 50 31 55 47 7 22 l-29 -15 14 41 c7 22 12 43 9 46 -3
2 -33 -21 -68 -53 -63 -56 -115 -91 -125 -81 -9 8 7 44 43 97 20 28 33 53 31
56 -9 8 -45 -20 -59 -45 -10 -20 -55 -52 -71 -52 -3 0 -7 9 -10 20 -10 40 -74
16 -139 -53 -16 -16 -28 -26 -28 -23 0 13 119 202 172 274 54 72 69 102 50
102 -4 0 -24 -21 -44 -47z m-48 -302 c0 -15 -50 -62 -60 -56 -14 9 0 34 29 50
31 17 31 17 31 6z m199 -73 c-50 -96 -122 -188 -146 -188 -39 0 9 93 84 159
62 55 80 64 62 29z"/>
<path d="M2034 1760 c0 -13 4 -16 10 -10 7 7 7 13 0 20 -6 6 -10 3 -10 -10z"/>
<path d="M2813 1757 c0 -12 1 -16 4 -9 3 6 9 10 13 7 5 -3 12 0 16 7 4 7 4 10
-1 6 -4 -4 -13 -4 -19 2 -8 6 -12 2 -13 -13z"/>
<path d="M1970 1760 c0 -5 5 -10 10 -10 6 0 10 5 10 10 0 6 -4 10 -10 10 -5 0
-10 -4 -10 -10z"/>
<path d="M4010 1758 c0 -3 9 -6 20 -5 11 1 20 5 20 9 0 3 -9 6 -20 5 -11 -1
-20 -5 -20 -9z"/>
<path d="M2004 1739 c-3 -6 2 -18 12 -27 17 -16 17 -16 5 0 -7 9 -10 22 -6 28
3 5 4 10 1 10 -3 0 -8 -5 -12 -11z"/>
<path d="M3673 1743 c4 -3 1 -13 -6 -22 -11 -14 -10 -14 6 -2 20 15 22 31 5
31 -6 0 -8 -3 -5 -7z"/>
<path d="M3845 1739 c-4 -6 -13 -8 -19 -6 -7 3 -13 -1 -13 -8 0 -8 7 -11 16
-7 13 5 14 3 4 -9 -10 -13 -10 -16 2 -16 8 0 11 5 8 10 -4 6 0 8 9 5 8 -4 15
-1 15 7 0 8 -7 11 -16 7 -14 -5 -14 -3 -2 11 7 9 11 17 8 17 -3 0 -9 -5 -12
-11z"/>
<path d="M3913 1731 c10 -12 9 -14 -4 -9 -9 4 -16 1 -16 -7 0 -10 5 -11 16 -5
9 4 19 7 23 7 3 -1 10 2 15 7 5 6 2 6 -6 1 -10 -6 -13 -4 -9 6 4 10 -1 15 -13
15 -14 0 -16 -3 -6 -15z"/>
<path d="M4069 1737 c6 -8 7 -18 3 -22 -4 -5 -1 -5 6 -1 10 6 10 11 1 22 -6 8
-14 14 -16 14 -3 0 0 -6 6 -13z"/>
<path d="M5359 1748 c-10 -33 6 -46 28 -24 4 4 1 6 -7 4 -8 -1 -14 3 -12 10 2
10 -6 19 -9 10z"/>
<path d="M5440 1695 c0 -42 3 -55 15 -55 11 0 15 11 15 40 0 36 3 40 25 40 22
0 25 -4 25 -35 0 -24 5 -35 15 -35 10 0 15 11 15 35 0 31 3 35 25 35 23 0 25
-4 25 -40 0 -29 4 -40 15 -40 12 0 15 13 15 55 l0 55 -95 0 -95 0 0 -55z"/>
<path d="M2781 1724 c0 -11 3 -14 6 -6 3 7 2 16 -1 19 -3 4 -6 -2 -5 -13z"/>
<path d="M2836 1721 c9 -9 34 -9 34 -1 0 5 -9 8 -20 7 -10 -1 -17 -3 -14 -6z"/>
<path d="M3750 1716 c0 -2 8 -10 18 -17 15 -13 16 -12 3 4 -13 16 -21 21 -21
13z"/>
<path d="M2795 1700 c-3 -5 -1 -10 4 -10 6 0 11 5 11 10 0 6 -2 10 -4 10 -3 0
-8 -4 -11 -10z"/>
<path d="M3730 1701 c0 -6 4 -13 10 -16 6 -3 7 1 4 9 -7 18 -14 21 -14 7z"/>
<path d="M2000 1679 c0 -5 5 -7 10 -4 6 3 10 8 10 11 0 2 -4 4 -10 4 -5 0 -10
-5 -10 -11z"/>
<path d="M2882 1681 c-10 -6 -10 -10 3 -21 13 -11 14 -10 9 5 -6 14 -4 16 6
10 9 -5 11 -4 6 3 -8 14 -7 14 -24 3z"/>
<path d="M2976 1674 c-3 -9 1 -11 11 -7 12 5 14 3 8 -8 -5 -8 -4 -11 0 -6 5 4
10 13 11 21 2 16 -24 17 -30 0z"/>
<path d="M3790 1686 c0 -2 7 -7 16 -10 8 -3 12 -2 9 4 -6 10 -25 14 -25 6z"/>
<path d="M3874 1675 c1 -8 6 -18 11 -22 4 -5 5 -2 0 6 -6 11 -4 13 10 7 15 -5
16 -4 5 9 -16 19 -29 19 -26 0z"/>
<path d="M3787 1649 c6 -22 20 -26 20 -4 0 8 -6 16 -13 19 -7 3 -10 -2 -7 -15z"/>
<path d="M2956 1647 c3 -10 9 -15 12 -12 3 3 0 11 -7 18 -10 9 -11 8 -5 -6z"/>
<path d="M3035 1650 c-3 -6 1 -7 9 -4 18 7 21 14 7 14 -6 0 -13 -4 -16 -10z"/>
<path d="M3116 1647 c3 -10 9 -15 12 -12 3 3 0 11 -7 18 -10 9 -11 8 -5 -6z"/>
<path d="M3158 1653 c7 -3 16 -2 19 1 4 3 -2 6 -13 5 -11 0 -14 -3 -6 -6z"/>
<path d="M3930 1656 c0 -2 8 -10 18 -17 15 -13 16 -12 3 4 -13 16 -21 21 -21
13z"/>
<path d="M2867 1639 c7 -7 15 -10 18 -7 3 3 -2 9 -12 12 -14 6 -15 5 -6 -5z"/>
<path d="M3245 1640 c-3 -6 1 -7 9 -4 18 7 21 14 7 14 -6 0 -13 -4 -16 -10z"/>
<path d="M3846 1638 c3 -4 9 -8 15 -8 5 0 9 4 9 8 0 5 -7 9 -15 9 -8 0 -12 -4
-9 -9z"/>
<path d="M3163 1615 c-3 -9 -3 -18 -1 -21 3 -3 8 4 11 16 6 23 -1 27 -10 5z"/>
<path d="M2929 1603 c-13 -16 -12 -17 4 -4 16 13 21 21 13 21 -2 0 -10 -8 -17
-17z"/>
<path d="M3810 1616 c0 -2 8 -10 18 -17 15 -13 16 -12 3 4 -13 16 -21 21 -21
13z"/>
<path d="M3034 1596 c1 -8 5 -18 8 -22 4 -3 5 1 4 10 -1 8 -5 18 -8 22 -4 3
-5 -1 -4 -10z"/>
<path d="M3141 1594 c0 -11 3 -14 6 -6 3 7 2 16 -1 19 -3 4 -6 -2 -5 -13z"/>
<path d="M3216 1593 c-6 -14 -5 -15 5 -6 7 7 10 15 7 18 -3 3 -9 -2 -12 -12z"/>
<path d="M3109 1583 c-13 -16 -12 -17 4 -4 9 7 17 15 17 17 0 8 -8 3 -21 -13z"/>
<path d="M3067 1579 c7 -7 15 -10 18 -7 3 3 -2 9 -12 12 -14 6 -15 5 -6 -5z"/>
<path d="M1954 1466 c1 -8 5 -18 8 -22 4 -3 5 1 4 10 -1 8 -5 18 -8 22 -4 3
-5 -1 -4 -10z"/>
<path d="M2028 1452 c3 -10 1 -13 -6 -8 -6 3 -13 2 -16 -3 -4 -5 1 -8 10 -7
21 3 39 33 20 33 -8 0 -12 -7 -8 -15z"/>
<path d="M1748 1453 c6 -2 18 -2 25 0 6 3 1 5 -13 5 -14 0 -19 -2 -12 -5z"/>
<path d="M4935 1451 c-3 -5 -2 -12 3 -15 5 -3 9 1 9 9 0 17 -3 19 -12 6z"/>
<path d="M5035 1433 c0 -13 7 -28 14 -35 11 -11 12 -10 5 2 -14 24 -14 42 0
37 7 -3 13 0 13 7 0 6 -8 12 -17 12 -11 0 -16 -8 -15 -23z"/>
<path d="M5132 1451 c-11 -7 -11 -9 0 -14 9 -3 15 1 15 9 0 8 -1 14 -1 14 -1
0 -7 -4 -14 -9z"/>
<path d="M5537 1439 c4 -13 8 -18 11 -10 2 7 -1 18 -6 23 -8 8 -9 4 -5 -13z"/>
<path d="M1390 1442 c0 -5 7 -9 15 -9 8 0 12 4 9 9 -3 4 -9 8 -15 8 -5 0 -9
-4 -9 -8z"/>
<path d="M1475 1440 c-3 -5 -1 -10 4 -10 6 0 11 5 11 10 0 6 -2 10 -4 10 -3 0
-8 -4 -11 -10z"/>
<path d="M1570 1438 c0 -4 4 -8 9 -8 6 0 12 4 15 8 3 5 -1 9 -9 9 -8 0 -15 -4
-15 -9z"/>
<path d="M1630 1446 c0 -2 7 -7 16 -10 8 -3 12 -2 9 4 -6 10 -25 14 -25 6z"/>
<path d="M1865 1440 c-3 -6 1 -7 9 -4 18 7 21 14 7 14 -6 0 -13 -4 -16 -10z"/>
<path d="M1921 1436 c-9 -11 -9 -16 0 -22 8 -5 9 -3 4 6 -6 10 -4 12 8 7 11
-4 14 -2 10 9 -6 17 -8 17 -22 0z"/>
<path d="M2086 1437 c3 -10 9 -15 12 -12 3 3 0 11 -7 18 -10 9 -11 8 -5 -6z"/>
<path d="M3146 1442 c-3 -5 1 -9 9 -9 8 0 12 4 9 9 -3 4 -7 8 -9 8 -2 0 -6 -4
-9 -8z"/>
<path d="M3230 1441 c0 -6 4 -13 10 -16 6 -3 7 1 4 9 -7 18 -14 21 -14 7z"/>
<path d="M3310 1440 c0 -5 5 -10 10 -10 6 0 10 5 10 10 0 6 -4 10 -10 10 -5 0
-10 -4 -10 -10z"/>
<path d="M3399 1433 c-12 -16 -12 -17 2 -6 9 7 19 10 22 6 4 -3 7 -1 7 5 0 17
-16 15 -31 -5z"/>
<path d="M3490 1440 c0 -5 5 -10 10 -10 6 0 10 5 10 10 0 6 -4 10 -10 10 -5 0
-10 -4 -10 -10z"/>
<path d="M3610 1438 c0 -11 12 -10 30 2 12 7 10 9 -8 7 -12 0 -22 -5 -22 -9z"/>
<path d="M3710 1440 c0 -5 5 -10 11 -10 5 0 7 5 4 10 -3 6 -8 10 -11 10 -2 0
-4 -4 -4 -10z"/>
<path d="M3797 1438 c-7 -5 0 -6 17 -4 16 3 31 7 33 10 8 8 -37 2 -50 -6z"/>
<path d="M3900 1445 c0 -2 6 -8 13 -14 10 -8 14 -7 14 2 0 8 -6 14 -14 14 -7
0 -13 -1 -13 -2z"/>
<path d="M3975 1441 c-3 -5 -2 -12 3 -15 5 -3 9 1 9 9 0 17 -3 19 -12 6z"/>
<path d="M4871 1432 c-7 -14 -6 -19 4 -19 8 0 11 7 7 16 -5 14 -4 14 14 1 18
-14 18 -14 5 3 -17 21 -18 21 -30 -1z"/>
<path d="M4961 1432 c-7 -14 -6 -19 4 -19 7 0 11 7 7 15 -4 11 -1 13 8 7 9 -5
11 -4 6 3 -10 16 -14 15 -25 -6z"/>
<path d="M5211 1434 c0 -11 3 -14 6 -6 3 7 2 16 -1 19 -3 4 -6 -2 -5 -13z"/>
<path d="M5375 1439 c-6 -8 -4 -10 5 -4 10 6 12 4 6 -11 -6 -15 -5 -17 5 -6 9
9 10 15 2 23 -8 8 -13 7 -18 -2z"/>
<path d="M1519 1428 c-6 -21 -5 -37 2 -32 5 3 7 9 4 14 -3 4 1 11 7 13 10 4
10 6 1 6 -7 1 -13 0 -14 -1z"/>
<path d="M1707 1409 c6 -22 20 -26 20 -4 0 8 -6 16 -13 19 -7 3 -10 -2 -7 -15z"/>
<path d="M1805 1422 c-13 -9 -17 -32 -6 -32 5 0 11 9 14 20 6 22 6 22 -8 12z"/>
<path d="M3270 1421 c14 -10 7 -16 -13 -12 -5 1 -5 -3 -2 -9 4 -6 9 -9 12 -6
3 3 15 1 27 -5 21 -10 21 -10 1 6 -11 9 -19 19 -17 23 2 3 -2 8 -10 10 -9 2
-8 0 2 -7z"/>
<path d="M3348 1411 c4 -10 1 -12 -8 -6 -8 5 -11 4 -7 -2 7 -11 43 -11 54 1 5
4 4 7 -2 6 -21 -5 -29 1 -15 10 12 7 10 9 -7 8 -14 -2 -19 -7 -15 -17z"/>
<path d="M3556 1422 c-2 -4 0 -14 6 -22 8 -12 9 -12 5 2 -3 9 -1 19 6 22 9 3
9 5 0 5 -6 1 -14 -3 -17 -7z"/>
<path d="M3674 1414 c3 -21 33 -39 33 -20 0 8 -7 12 -15 8 -10 -3 -13 -1 -8 6
3 6 2 13 -3 16 -5 4 -8 -1 -7 -10z"/>
<path d="M3748 1411 c3 -8 1 -12 -5 -8 -5 3 -10 0 -10 -8 0 -11 4 -12 14 -4 9
8 17 8 26 0 10 -8 14 -7 14 4 0 8 -5 11 -10 8 -6 -4 -8 0 -5 8 4 10 -1 15 -12
15 -11 0 -16 -5 -12 -15z"/>
<path d="M4756 1422 c-3 -5 1 -9 9 -9 8 0 12 4 9 9 -3 4 -7 8 -9 8 -2 0 -6 -4
-9 -8z"/>
<path d="M4820 1426 c0 -2 8 -10 18 -17 15 -13 16 -12 3 4 -13 16 -21 21 -21
13z"/>
<path d="M5116 1422 c-3 -5 1 -9 9 -9 8 0 12 4 9 9 -3 4 -7 8 -9 8 -2 0 -6 -4
-9 -8z"/>
<path d="M5656 1417 c4 -11 -2 -14 -26 -12 -16 1 -32 -1 -35 -4 -2 -4 12 -7
32 -6 36 1 54 17 34 30 -6 3 -8 0 -5 -8z"/>
<path d="M2213 1405 c0 -7 8 -10 19 -7 10 2 18 6 18 7 0 1 -8 5 -18 7 -11 3
-19 0 -19 -7z"/>
<path d="M3100 1416 c0 -2 7 -7 16 -10 8 -3 12 -2 9 4 -6 10 -25 14 -25 6z"/>
<path d="M3888 1413 c-10 -2 -18 -9 -18 -15 0 -6 3 -8 7 -5 3 4 11 3 17 -3 8
-6 12 -3 12 11 0 10 0 18 -1 18 0 -1 -8 -3 -17 -6z"/>
<path d="M5175 1410 c-4 -6 -11 -8 -16 -5 -5 4 -9 2 -9 -3 0 -5 8 -12 18 -14
12 -4 18 1 18 13 0 22 -2 23 -11 9z"/>
<path d="M5451 1413 c-1 -18 13 -23 29 -11 12 8 12 9 -2 5 -9 -3 -19 -1 -22 6
-3 9 -5 9 -5 0z"/>
<path d="M1491 1394 c0 -11 3 -14 6 -6 3 7 2 16 -1 19 -3 4 -6 -2 -5 -13z"/>
<path d="M1957 1395 c-6 -15 10 -32 20 -21 4 3 1 6 -5 6 -6 0 -9 7 -6 15 4 8
4 15 1 15 -3 0 -7 -7 -10 -15z"/>
<path d="M2310 1398 c0 -4 4 -8 9 -8 6 0 12 4 15 8 3 5 -1 9 -9 9 -8 0 -15 -4
-15 -9z"/>
<path d="M3813 1395 c0 -7 6 -11 14 -8 7 3 13 6 13 8 0 2 -6 5 -13 8 -8 3 -14
-1 -14 -8z"/>
<path d="M3966 1399 c4 -8 30 -6 38 2 3 3 -5 5 -19 5 -13 0 -22 -3 -19 -7z"/>
<path d="M4790 1400 c0 -5 5 -10 10 -10 6 0 10 5 10 10 0 6 -4 10 -10 10 -5 0
-10 -4 -10 -10z"/>
<path d="M4913 1403 c4 -3 3 -11 -3 -17 -6 -8 -3 -12 9 -12 12 0 17 6 13 18
-2 10 -9 18 -15 18 -6 0 -7 -3 -4 -7z"/>
<path d="M4990 1399 c0 -3 9 -9 19 -12 13 -3 18 0 15 7 -5 13 -34 18 -34 5z"/>
<path d="M5336 1402 c-3 -4 4 -9 15 -9 23 -2 25 3 4 10 -8 4 -16 3 -19 -1z"/>
<path d="M5430 1401 c0 -6 4 -13 10 -16 6 -3 7 1 4 9 -7 18 -14 21 -14 7z"/>
<path d="M3069 1383 c-13 -16 -12 -17 4 -4 16 13 21 21 13 21 -2 0 -10 -8 -17
-17z"/>
<path d="M2149 1374 c6 -12 7 -24 4 -28 -3 -3 -4 -6 -1 -6 3 0 12 8 19 18 7 9
9 14 5 10 -5 -4 -15 0 -23 10 -13 15 -13 15 -4 -4z"/>
<path d="M2225 1380 c-3 -6 1 -7 9 -4 18 7 21 14 7 14 -6 0 -13 -4 -16 -10z"/>
<path d="M2267 1373 c3 -7 6 -13 8 -13 2 0 5 6 8 13 3 8 -1 14 -8 14 -7 0 -11
-6 -8 -14z"/>
<path d="M3840 1380 c-9 -6 -10 -10 -3 -10 6 0 15 5 18 10 8 12 4 12 -15 0z"/>
<path d="M3953 1375 c0 -8 4 -12 9 -9 5 3 6 10 3 15 -9 13 -12 11 -12 -6z"/>
<path d="M4838 1371 c5 -13 3 -14 -9 -4 -13 10 -16 10 -16 -2 0 -8 3 -13 5
-10 3 3 12 -1 21 -7 9 -7 13 -9 9 -4 -4 5 -3 16 2 26 6 12 5 17 -5 17 -8 0
-11 -7 -7 -16z"/>
<path d="M5075 1381 c6 -11 4 -13 -9 -8 -9 4 -15 3 -11 -2 3 -5 0 -11 -7 -13
-7 -3 -5 -7 6 -11 11 -5 15 -3 10 5 -5 7 -2 9 8 5 17 -6 19 16 3 30 -4 5 -5 2
0 -6z"/>
<path d="M5196 1373 c-6 -14 -5 -15 5 -6 7 7 10 15 7 18 -3 3 -9 -2 -12 -12z"/>
<path d="M5395 1381 c-9 -15 15 -25 28 -12 9 9 7 10 -7 5 -13 -5 -17 -4 -12 4
4 7 5 12 2 12 -3 0 -7 -4 -11 -9z"/>
<path d="M5506 1377 c3 -10 9 -15 12 -12 3 3 0 11 -7 18 -10 9 -11 8 -5 -6z"/>
<path d="M1652 1356 c1 -14 5 -23 9 -20 7 4 0 44 -7 44 -2 0 -3 -11 -2 -24z"/>
<path d="M1733 1365 c0 -5 12 -10 27 -10 15 0 27 5 27 10 0 6 -12 10 -27 10
-15 0 -27 -4 -27 -10z"/>
<path d="M1857 1360 c-3 -11 -2 -22 2 -24 4 -3 8 6 9 20 2 29 -4 31 -11 4z"/>
<path d="M2295 1369 c-4 -6 -5 -12 -2 -15 2 -3 7 2 10 11 7 17 1 20 -8 4z"/>
<path d="M3188 1373 c6 -2 9 -10 6 -15 -4 -7 -2 -8 5 -4 13 9 5 26 -12 25 -9
0 -8 -2 1 -6z"/>
<path d="M3486 1363 c-6 -14 -5 -15 5 -6 7 7 10 15 7 18 -3 3 -9 -2 -12 -12z"/>
<path d="M3525 1370 c-16 -7 -17 -9 -3 -9 9 -1 20 4 23 9 7 11 7 11 -20 0z"/>
<path d="M3932 1356 c1 -14 5 -23 9 -20 7 4 0 44 -7 44 -2 0 -3 -11 -2 -24z"/>
<path d="M4955 1371 c-3 -5 -2 -12 3 -15 5 -3 9 1 9 9 0 17 -3 19 -12 6z"/>
<path d="M5315 1370 c-3 -5 -3 -10 2 -10 4 0 1 -5 -7 -11 -12 -8 -12 -10 -1
-7 8 2 15 12 17 21 3 19 -2 22 -11 7z"/>
<path d="M5588 1373 c7 -3 16 -2 19 1 4 3 -2 6 -13 5 -11 0 -14 -3 -6 -6z"/>
<path d="M1439 1368 c-5 -18 -6 -38 -1 -34 7 8 12 36 6 36 -2 0 -4 -1 -5 -2z"/>
<path d="M2067 1359 c7 -7 15 -10 18 -7 3 3 -2 9 -12 12 -14 6 -15 5 -6 -5z"/>
<path d="M2190 1359 c0 -5 5 -7 10 -4 6 3 10 8 10 11 0 2 -4 4 -10 4 -5 0 -10
-5 -10 -11z"/>
<path d="M3123 1363 c-7 -2 -13 -9 -13 -15 0 -7 5 -7 13 1 8 6 17 8 20 4 4 -3
7 -1 7 5 0 13 -7 14 -27 5z"/>
<path d="M3237 1355 c-4 -8 -3 -16 1 -19 4 -3 9 4 9 15 2 23 -3 25 -10 4z"/>
<path d="M3327 1359 c7 -7 15 -10 18 -7 3 3 -2 9 -12 12 -14 6 -15 5 -6 -5z"/>
<path d="M3380 1360 c-9 -6 -10 -10 -3 -10 6 0 15 5 18 10 8 12 4 12 -15 0z"/>
<path d="M3699 1353 c-13 -17 -13 -17 6 -3 11 8 22 16 24 17 2 2 0 3 -6 3 -6
0 -17 -8 -24 -17z"/>
<path d="M3795 1360 c3 -5 8 -10 11 -10 2 0 4 5 4 10 0 6 -5 10 -11 10 -5 0
-7 -4 -4 -10z"/>
<path d="M5016 1353 c-6 -14 -5 -15 5 -6 7 7 10 15 7 18 -3 3 -9 -2 -12 -12z"/>
<path d="M5115 1350 c-16 -11 -25 -20 -18 -20 6 0 15 5 18 11 4 6 13 8 19 6 7
-3 13 1 13 9 0 8 -1 14 -1 14 -1 0 -14 -9 -31 -20z"/>
<path d="M5235 1361 c-3 -5 -2 -12 3 -15 5 -3 9 1 9 9 0 17 -3 19 -12 6z"/>
<path d="M5370 1360 c0 -5 5 -10 11 -10 5 0 7 5 4 10 -3 6 -8 10 -11 10 -2 0
-4 -4 -4 -10z"/>
<path d="M2013 1345 c0 -8 4 -12 9 -9 5 3 6 10 3 15 -9 13 -12 11 -12 -6z"/>
<path d="M3434 1336 c1 -14 4 -28 7 -31 3 -3 5 6 5 19 -1 14 -4 28 -7 31 -3 3
-5 -6 -5 -19z"/>
<path d="M3549 1343 c-13 -16 -12 -17 3 -5 9 8 23 10 29 6 8 -4 9 -3 5 4 -10
17 -21 15 -37 -5z"/>
<path d="M4976 1343 c-6 -14 -5 -15 5 -6 7 7 10 15 7 18 -3 3 -9 -2 -12 -12z"/>
<path d="M5456 1352 c-2 -4 4 -8 14 -8 10 0 16 4 14 8 -3 4 -9 8 -14 8 -5 0
-11 -4 -14 -8z"/>
<path d="M1570 1339 c0 -5 5 -7 10 -4 6 3 10 8 10 11 0 2 -4 4 -10 4 -5 0 -10
-5 -10 -11z"/>
<path d="M1920 1340 c-9 -6 -10 -10 -3 -10 6 0 15 5 18 10 8 12 4 12 -15 0z"/>
<path d="M3300 1346 c0 -2 8 -10 18 -17 15 -13 16 -12 3 4 -13 16 -21 21 -21
13z"/>
<path d="M3396 1335 c-9 -26 -7 -32 5 -12 6 10 9 21 6 23 -2 3 -7 -2 -11 -11z"/>
<path d="M3620 1340 c-9 -6 -10 -10 -3 -10 6 0 15 5 18 10 8 12 4 12 -15 0z"/>
<path d="M5178 1338 c-9 -5 -6 -7 9 -5 12 2 25 6 28 8 8 9 -23 6 -37 -3z"/>
<path d="M5400 1335 c-7 -8 -17 -12 -23 -8 -6 4 -7 1 -3 -6 6 -9 13 -8 27 5
10 9 19 19 19 21 0 7 -8 2 -20 -12z"/>
<path d="M5505 1339 c-3 -4 2 -6 10 -5 21 3 28 13 10 13 -9 0 -18 -4 -20 -8z"/>
<path d="M3755 1320 c3 -5 8 -10 11 -10 2 0 4 5 4 10 0 6 -5 10 -11 10 -5 0
-7 -4 -4 -10z"/>
<path d="M4642 1258 c-17 -35 -42 -88 -55 -120 -44 -99 -197 -367 -309 -542
-60 -93 -106 -171 -103 -175 9 -8 33 25 138 194 86 137 149 244 207 350 11 22
18 31 15 20 -34 -109 -40 -220 -13 -252 46 -55 174 67 317 302 23 39 40 61 37
50 -70 -269 -82 -447 -40 -634 3 -14 9 -20 14 -15 5 5 5 28 -1 54 -14 59 -5
293 15 391 15 75 24 111 85 319 20 69 27 108 21 114 -6 6 -11 7 -11 3 -4 -20
-14 -46 -50 -126 -16 -34 -26 -68 -22 -74 3 -5 1 -7 -4 -4 -6 4 -32 -28 -58
-71 -57 -92 -142 -206 -182 -244 -36 -34 -85 -60 -96 -49 -32 32 11 226 99
446 48 120 46 162 -4 63z"/>
<path d="M6426 1107 c-39 -40 -91 -99 -116 -132 -25 -33 -48 -62 -51 -65 -3
-3 -27 -41 -54 -85 -62 -104 -69 -112 -134 -142 -69 -33 -132 -41 -150 -20
-21 26 -4 54 40 65 47 12 109 51 109 70 0 7 -10 16 -22 21 -46 17 -120 -23
-159 -85 -25 -41 -93 -94 -121 -94 -30 0 -33 30 -10 94 24 65 22 78 -6 53 -21
-19 -42 -22 -42 -7 0 6 -7 10 -15 10 -29 0 -65 -24 -90 -60 -15 -21 -46 -48
-71 -61 -61 -33 -79 -21 -79 52 0 74 -18 74 -89 4 -31 -31 -56 -54 -56 -51 0
28 166 289 248 388 33 41 40 58 22 58 -19 0 -168 -188 -193 -242 -6 -16 -15
-28 -19 -28 -5 0 -8 -4 -8 -10 0 -19 -69 -118 -102 -145 -65 -55 -152 -81
-165 -49 -14 36 80 166 108 149 16 -11 10 -22 -25 -46 -31 -21 -39 -39 -17
-39 12 0 47 33 58 55 14 27 6 45 -20 45 -32 0 -65 -25 -148 -112 -65 -67 -118
-102 -134 -86 -14 14 32 108 90 184 13 18 -3 30 -23 18 -26 -17 -81 -102 -92
-146 -9 -32 -8 -44 4 -63 20 -30 56 -23 102 21 60 56 60 56 62 26 2 -29 25
-52 52 -52 22 0 140 59 140 70 0 4 6 10 14 13 10 4 7 -11 -11 -50 -37 -81 -17
-87 42 -12 50 64 76 92 110 121 20 16 20 16 17 -31 -6 -81 48 -106 122 -56 21
14 35 21 31 15 -3 -6 -3 -19 0 -30 10 -31 48 -24 88 15 20 19 38 35 39 35 2 0
4 -9 5 -21 5 -56 59 -64 121 -19 47 34 52 35 52 16 0 -24 31 -40 74 -38 34 1
93 22 168 60 3 2 -2 -20 -13 -48 -51 -134 6 -207 111 -142 87 54 294 262 261
262 -6 0 -11 -4 -11 -9 0 -18 -167 -179 -223 -215 -53 -34 -108 -49 -124 -33
-3 4 -6 26 -5 49 3 95 161 350 321 518 76 81 95 110 70 110 -7 0 -44 -33 -83
-73z m-390 -326 c-9 -10 -35 -23 -57 -29 -36 -9 -38 -8 -27 5 14 18 65 42 87
43 11 0 10 -4 -3 -19z m-320 -32 c7 -11 -57 -83 -90 -101 -17 -9 -18 -7 -12
18 16 64 81 117 102 83z"/>
<path d="M5016 871 c-16 -17 -16 -19 0 -25 20 -8 50 17 40 33 -10 16 -20 14
-40 -8z"/>
</g>
</svg>
